<ttFont>
    <TTGlyph name=".notdef" xMin="193" yMin="0" xMax="1034" yMax="1462">
      <contour>
        <pt x="193" y="1462" on="1"/>
        <pt x="1034" y="1462" on="1"/>
        <pt x="1034" y="0" on="1"/>
        <pt x="193" y="0" on="1"/>
      </contour>
      <contour>
        <pt x="297" y="104" on="1"/>
        <pt x="930" y="104" on="1"/>
        <pt x="930" y="1358" on="1"/>
        <pt x="297" y="1358" on="1"/>
      </contour>
    </TTGlyph>
    <TTGlyph name="glyph00083" xMin="-1450" yMin="-369" xMax="1750" yMax="-223">
      <contour>
        <pt x="-1450" y="-223" on="1"/>
        <pt x="1750" y="-223" on="1"/>
        <pt x="1750" y="-369" on="1"/>
        <pt x="-1450" y="-369" on="1"/>
      </contour>
    </TTGlyph>
    <TTGlyph name="glyph00084" xMin="-1450" yMin="-369" xMax="2350" yMax="-223">
      <contour>
        <pt x="-1450" y="-223" on="1"/>
        <pt x="2350" y="-223" on="1"/>
        <pt x="2350" y="-369" on="1"/>
        <pt x="-1450" y="-369" on="1"/>
      </contour>
    </TTGlyph>
    <TTGlyph name="glyph00085" xMin="-1750" yMin="-369" xMax="1450" yMax="-223">
      <contour>
        <pt x="-1750" y="-223" on="1"/>
        <pt x="1450" y="-223" on="1"/>
        <pt x="1450" y="-369" on="1"/>
        <pt x="-1750" y="-369" on="1"/>
      </contour>
    </TTGlyph>
    <TTGlyph name="glyph00086" xMin="-1750" yMin="-369" xMax="1750" yMax="-223">
      <contour>
        <pt x="-1750" y="-223" on="1"/>
        <pt x="1750" y="-223" on="1"/>
        <pt x="1750" y="-369" on="1"/>
        <pt x="-1750" y="-369" on="1"/>
      </contour>
    </TTGlyph>
    <TTGlyph name="glyph00087" xMin="-1750" yMin="-369" xMax="2350" yMax="-223">
      <contour>
        <pt x="-1750" y="-223" on="1"/>
        <pt x="2350" y="-223" on="1"/>
        <pt x="2350" y="-369" on="1"/>
        <pt x="-1750" y="-369" on="1"/>
      </contour>
    </TTGlyph>
    <TTGlyph name="glyph00088" xMin="-2350" yMin="-369" xMax="1450" yMax="-223">
      <contour>
        <pt x="-2350" y="-223" on="1"/>
        <pt x="1450" y="-223" on="1"/>
        <pt x="1450" y="-369" on="1"/>
        <pt x="-2350" y="-369" on="1"/>
      </contour>
    </TTGlyph>
    <TTGlyph name="glyph00089" xMin="-2350" yMin="-369" xMax="1750" yMax="-223">
      <contour>
        <pt x="-2350" y="-223" on="1"/>
        <pt x="1750" y="-223" on="1"/>
        <pt x="1750" y="-369" on="1"/>
        <pt x="-2350" y="-369" on="1"/>
      </contour>
    </TTGlyph>
    <TTGlyph name="glyph00090" xMin="-2350" yMin="-369" xMax="2350" yMax="-223">
      <contour>
        <pt x="-2350" y="-223" on="1"/>
        <pt x="2350" y="-223" on="1"/>
        <pt x="2350" y="-369" on="1"/>
        <pt x="-2350" y="-369" on="1"/>
      </contour>
    </TTGlyph>
    <TTGlyph name="uniAAE0" xMin="80" yMin="-4" xMax="1274" yMax="1368">
      <contour>
        <pt x="223" y="1053" on="1"/>
        <pt x="373" y="1368" on="0"/>
        <pt x="739" y="1368" on="1"/>
        <pt x="999" y="1368" on="0"/>
        <pt x="1274" y="1081" on="0"/>
        <pt x="1274" y="807" on="1"/>
        <pt x="1274" y="-4" on="1"/>
        <pt x="1126" y="78" on="0"/>
        <pt x="961" y="78" on="1"/>
        <pt x="856" y="78" on="0"/>
        <pt x="705" y="37" on="1"/>
        <pt x="561" y="-4" on="0"/>
        <pt x="455" y="-4" on="1"/>
        <pt x="217" y="-4" on="0"/>
        <pt x="80" y="158" on="1"/>
        <pt x="180" y="268" on="1"/>
        <pt x="279" y="145" on="0"/>
        <pt x="461" y="145" on="1"/>
        <pt x="557" y="145" on="0"/>
        <pt x="717" y="188" on="1"/>
        <pt x="874" y="231" on="0"/>
        <pt x="961" y="231" on="1"/>
        <pt x="1026" y="231" on="0"/>
        <pt x="1108" y="211" on="1"/>
        <pt x="1108" y="846" on="1"/>
        <pt x="1108" y="1020" on="0"/>
        <pt x="915" y="1214" on="0"/>
        <pt x="735" y="1214" on="1"/>
        <pt x="606" y="1214" on="0"/>
        <pt x="434" y="1104" on="0"/>
        <pt x="369" y="975" on="1"/>
      </contour>
    </TTGlyph>
    <TTGlyph name="uniAAE1" xMin="66" yMin="0" xMax="1249" yMax="1350">
      <contour>
        <pt x="66" y="1200" on="1"/>
        <pt x="66" y="1350" on="1"/>
        <pt x="1249" y="1350" on="1"/>
        <pt x="1249" y="1200" on="1"/>
        <pt x="365" y="1200" on="1"/>
        <pt x="365" y="516" on="1"/>
        <pt x="365" y="154" on="0"/>
        <pt x="741" y="154" on="1"/>
        <pt x="997" y="154" on="0"/>
        <pt x="1108" y="406" on="1"/>
        <pt x="1249" y="328" on="1"/>
        <pt x="1188" y="176" on="0"/>
        <pt x="936" y="0" on="0"/>
        <pt x="743" y="0" on="1"/>
        <pt x="471" y="0" on="0"/>
        <pt x="197" y="289" on="0"/>
        <pt x="197" y="561" on="1"/>
        <pt x="197" y="1200" on="1"/>
      </contour>
    </TTGlyph>
    <TTGlyph name="uniAAE2" xMin="82" yMin="-8" xMax="1559" yMax="1348">
      <contour>
        <pt x="643" y="1096" on="1"/>
        <pt x="997" y="1096" on="1"/>
        <pt x="997" y="1106" on="1"/>
        <pt x="997" y="1204" on="0"/>
        <pt x="1151" y="1348" on="0"/>
        <pt x="1268" y="1348" on="1"/>
        <pt x="1399" y="1348" on="0"/>
        <pt x="1559" y="1194" on="0"/>
        <pt x="1559" y="1067" on="1"/>
        <pt x="1559" y="1010" on="0"/>
        <pt x="1526" y="905" on="0"/>
        <pt x="1464" y="797" on="0"/>
        <pt x="1343" y="641" on="1"/>
        <pt x="1272" y="555" on="0"/>
        <pt x="1192" y="414" on="0"/>
        <pt x="1192" y="330" on="1"/>
        <pt x="1192" y="260" on="0"/>
        <pt x="1311" y="162" on="0"/>
        <pt x="1376" y="154" on="1"/>
        <pt x="1333" y="-8" on="1"/>
        <pt x="1257" y="2" on="0"/>
        <pt x="1114" y="92" on="0"/>
        <pt x="1026" y="233" on="0"/>
        <pt x="1026" y="330" on="1"/>
        <pt x="1026" y="422" on="0"/>
        <pt x="1120" y="618" on="0"/>
        <pt x="1231" y="745" on="1"/>
        <pt x="1395" y="932" on="0"/>
        <pt x="1395" y="1067" on="1"/>
        <pt x="1395" y="1114" on="0"/>
        <pt x="1337" y="1192" on="0"/>
        <pt x="1270" y="1192" on="1"/>
        <pt x="1214" y="1192" on="0"/>
        <pt x="1151" y="1116" on="0"/>
        <pt x="1151" y="1042" on="1"/>
        <pt x="1151" y="999" on="0"/>
        <pt x="1165" y="952" on="1"/>
        <pt x="475" y="952" on="1"/>
        <pt x="489" y="999" on="0"/>
        <pt x="492" y="1042" on="1"/>
        <pt x="492" y="1114" on="0"/>
        <pt x="426" y="1192" on="0"/>
        <pt x="371" y="1192" on="1"/>
        <pt x="303" y="1192" on="0"/>
        <pt x="246" y="1114" on="0"/>
        <pt x="246" y="1067" on="1"/>
        <pt x="246" y="932" on="0"/>
        <pt x="410" y="745" on="1"/>
        <pt x="522" y="614" on="0"/>
        <pt x="614" y="420" on="0"/>
        <pt x="614" y="330" on="1"/>
        <pt x="614" y="233" on="0"/>
        <pt x="526" y="92" on="0"/>
        <pt x="385" y="2" on="0"/>
        <pt x="307" y="-8" on="1"/>
        <pt x="264" y="154" on="1"/>
        <pt x="330" y="162" on="0"/>
        <pt x="449" y="260" on="0"/>
        <pt x="449" y="330" on="1"/>
        <pt x="449" y="414" on="0"/>
        <pt x="369" y="555" on="0"/>
        <pt x="297" y="641" on="1"/>
        <pt x="176" y="795" on="0"/>
        <pt x="117" y="901" on="0"/>
        <pt x="82" y="1008" on="0"/>
        <pt x="82" y="1067" on="1"/>
        <pt x="82" y="1194" on="0"/>
        <pt x="240" y="1348" on="0"/>
        <pt x="373" y="1348" on="1"/>
        <pt x="494" y="1348" on="0"/>
        <pt x="643" y="1206" on="0"/>
      </contour>
    </TTGlyph>
    <TTGlyph name="uniAAE3" xMin="70" yMin="0" xMax="1470" yMax="1350">
      <contour>
        <pt x="70" y="0" on="1"/>
        <pt x="70" y="170" on="0"/>
        <pt x="242" y="377" on="0"/>
        <pt x="395" y="377" on="1"/>
        <pt x="551" y="377" on="0"/>
        <pt x="623" y="266" on="1"/>
        <pt x="786" y="1350" on="1"/>
        <pt x="950" y="1350" on="1"/>
        <pt x="946" y="1280" on="1"/>
        <pt x="946" y="1079" on="0"/>
        <pt x="1122" y="1079" on="1"/>
        <pt x="1305" y="1079" on="0"/>
        <pt x="1305" y="1350" on="1"/>
        <pt x="1470" y="1350" on="1"/>
        <pt x="1470" y="1153" on="0"/>
        <pt x="1286" y="940" on="0"/>
        <pt x="1124" y="940" on="1"/>
        <pt x="985" y="940" on="0"/>
        <pt x="897" y="1028" on="1"/>
        <pt x="748" y="12" on="1"/>
        <pt x="748" y="0" on="1"/>
        <pt x="582" y="0" on="1"/>
        <pt x="582" y="98" on="0"/>
        <pt x="496" y="231" on="0"/>
        <pt x="395" y="231" on="1"/>
        <pt x="221" y="231" on="0"/>
        <pt x="221" y="0" on="1"/>
      </contour>
    </TTGlyph>
    <TTGlyph name="uniAAE4" xMin="55" yMin="-8" xMax="2087" yMax="1358">
      <contour>
        <pt x="862" y="1194" on="1"/>
        <pt x="805" y="1194" on="0"/>
        <pt x="672" y="1087" on="0"/>
        <pt x="563" y="936" on="1"/>
        <pt x="522" y="883" on="1"/>
        <pt x="657" y="694" on="0"/>
        <pt x="791" y="436" on="0"/>
        <pt x="791" y="324" on="1"/>
        <pt x="791" y="168" on="0"/>
        <pt x="590" y="-8" on="0"/>
        <pt x="424" y="-8" on="1"/>
        <pt x="262" y="-8" on="0"/>
        <pt x="55" y="174" on="0"/>
        <pt x="55" y="324" on="1"/>
        <pt x="55" y="428" on="0"/>
        <pt x="186" y="694" on="0"/>
        <pt x="559" y="1196" on="0"/>
        <pt x="762" y="1350" on="0"/>
        <pt x="864" y="1350" on="1"/>
        <pt x="934" y="1350" on="0"/>
        <pt x="1057" y="1288" on="0"/>
        <pt x="1178" y="1174" on="0"/>
        <pt x="1296" y="1018" on="1"/>
        <pt x="1425" y="1184" on="0"/>
        <pt x="1546" y="1296" on="0"/>
        <pt x="1675" y="1358" on="0"/>
        <pt x="1749" y="1358" on="1"/>
        <pt x="1923" y="1358" on="0"/>
        <pt x="2087" y="1161" on="0"/>
        <pt x="2087" y="954" on="1"/>
        <pt x="2087" y="0" on="1"/>
        <pt x="1913" y="0" on="1"/>
        <pt x="1913" y="946" on="1"/>
        <pt x="1913" y="1083" on="0"/>
        <pt x="1833" y="1202" on="0"/>
        <pt x="1737" y="1202" on="1"/>
        <pt x="1608" y="1202" on="0"/>
        <pt x="1442" y="948" on="1"/>
        <pt x="1407" y="897" on="1"/>
        <pt x="1395" y="887" on="1"/>
        <pt x="1536" y="696" on="0"/>
        <pt x="1665" y="436" on="0"/>
        <pt x="1665" y="326" on="1"/>
        <pt x="1665" y="174" on="0"/>
        <pt x="1466" y="-6" on="0"/>
        <pt x="1298" y="-6" on="1"/>
        <pt x="1135" y="-6" on="0"/>
        <pt x="928" y="176" on="0"/>
        <pt x="928" y="326" on="1"/>
        <pt x="928" y="428" on="0"/>
        <pt x="1044" y="672" on="0"/>
        <pt x="1198" y="883" on="1"/>
        <pt x="1063" y="1073" on="0"/>
        <pt x="922" y="1194" on="0"/>
      </contour>
      <contour>
        <pt x="1100" y="352" on="1"/>
        <pt x="1100" y="248" on="0"/>
        <pt x="1210" y="145" on="0"/>
        <pt x="1296" y="145" on="1"/>
        <pt x="1382" y="145" on="0"/>
        <pt x="1493" y="248" on="0"/>
        <pt x="1493" y="356" on="1"/>
        <pt x="1493" y="483" on="0"/>
        <pt x="1294" y="750" on="1"/>
        <pt x="1204" y="625" on="0"/>
        <pt x="1100" y="430" on="0"/>
      </contour>
      <contour>
        <pt x="225" y="350" on="1"/>
        <pt x="225" y="246" on="0"/>
        <pt x="338" y="143" on="0"/>
        <pt x="422" y="143" on="1"/>
        <pt x="508" y="143" on="0"/>
        <pt x="621" y="246" on="0"/>
        <pt x="621" y="354" on="1"/>
        <pt x="621" y="479" on="0"/>
        <pt x="420" y="748" on="1"/>
        <pt x="330" y="623" on="0"/>
        <pt x="225" y="428" on="0"/>
      </contour>
    </TTGlyph>
    <TTGlyph name="uniAAE5" xMin="80" yMin="0" xMax="1309" yMax="1350">
      <contour>
        <pt x="182" y="0" on="1"/>
        <pt x="182" y="891" on="1"/>
        <pt x="602" y="891" on="1"/>
        <pt x="602" y="1198" on="1"/>
        <pt x="80" y="1198" on="1"/>
        <pt x="80" y="1350" on="1"/>
        <pt x="1309" y="1350" on="1"/>
        <pt x="1309" y="1198" on="1"/>
        <pt x="768" y="1198" on="1"/>
        <pt x="768" y="891" on="1"/>
        <pt x="1186" y="891" on="1"/>
        <pt x="1186" y="0" on="1"/>
      </contour>
      <contour>
        <pt x="1016" y="143" on="1"/>
        <pt x="1016" y="739" on="1"/>
        <pt x="768" y="739" on="1"/>
        <pt x="768" y="143" on="1"/>
      </contour>
      <contour>
        <pt x="602" y="143" on="1"/>
        <pt x="602" y="739" on="1"/>
        <pt x="354" y="739" on="1"/>
        <pt x="354" y="143" on="1"/>
      </contour>
    </TTGlyph>
    <TTGlyph name="uniAAE6" xMin="70" yMin="-2" xMax="1628" yMax="1356">
      <contour>
        <pt x="1059" y="154" on="1"/>
        <pt x="1460" y="172" on="0"/>
        <pt x="1460" y="580" on="1"/>
        <pt x="1460" y="952" on="0"/>
        <pt x="1225" y="952" on="1"/>
        <pt x="1114" y="952" on="0"/>
        <pt x="1001" y="864" on="0"/>
        <pt x="940" y="670" on="0"/>
        <pt x="940" y="516" on="1"/>
        <pt x="772" y="516" on="1"/>
        <pt x="770" y="674" on="0"/>
        <pt x="713" y="862" on="0"/>
        <pt x="608" y="950" on="0"/>
        <pt x="504" y="950" on="1"/>
        <pt x="248" y="950" on="0"/>
        <pt x="248" y="578" on="1"/>
        <pt x="248" y="358" on="0"/>
        <pt x="453" y="158" on="0"/>
        <pt x="649" y="154" on="1"/>
        <pt x="649" y="-2" on="1"/>
        <pt x="373" y="2" on="0"/>
        <pt x="70" y="305" on="0"/>
        <pt x="70" y="578" on="1"/>
        <pt x="70" y="821" on="0"/>
        <pt x="289" y="1096" on="0"/>
        <pt x="492" y="1102" on="1"/>
        <pt x="526" y="1219" on="0"/>
        <pt x="721" y="1356" on="0"/>
        <pt x="852" y="1356" on="1"/>
        <pt x="987" y="1356" on="0"/>
        <pt x="1184" y="1223" on="0"/>
        <pt x="1221" y="1102" on="1"/>
        <pt x="1628" y="1102" on="0"/>
        <pt x="1628" y="580" on="1"/>
        <pt x="1628" y="305" on="0"/>
        <pt x="1335" y="6" on="0"/>
        <pt x="1059" y="-2" on="1"/>
      </contour>
      <contour>
        <pt x="856" y="817" on="1"/>
        <pt x="907" y="1012" on="0"/>
        <pt x="1071" y="1077" on="1"/>
        <pt x="1051" y="1141" on="0"/>
        <pt x="938" y="1223" on="0"/>
        <pt x="854" y="1223" on="1"/>
        <pt x="776" y="1223" on="0"/>
        <pt x="664" y="1149" on="0"/>
        <pt x="643" y="1079" on="1"/>
        <pt x="809" y="1022" on="0"/>
      </contour>
    </TTGlyph>
    <TTGlyph name="uniAAE7" xMin="113" yMin="-6" xMax="1694" yMax="1350">
      <contour>
        <pt x="1358" y="1350" on="1"/>
        <pt x="1694" y="1350" on="0"/>
        <pt x="1694" y="963" on="1"/>
        <pt x="1694" y="0" on="1"/>
        <pt x="1520" y="0" on="1"/>
        <pt x="1520" y="954" on="1"/>
        <pt x="1520" y="1081" on="0"/>
        <pt x="1438" y="1194" on="0"/>
        <pt x="1346" y="1194" on="1"/>
        <pt x="1307" y="1194" on="0"/>
        <pt x="1223" y="1139" on="0"/>
        <pt x="1130" y="1047" on="0"/>
        <pt x="1004" y="883" on="1"/>
        <pt x="1161" y="664" on="0"/>
        <pt x="1272" y="426" on="0"/>
        <pt x="1272" y="326" on="1"/>
        <pt x="1272" y="170" on="0"/>
        <pt x="1071" y="-6" on="0"/>
        <pt x="905" y="-6" on="1"/>
        <pt x="743" y="-6" on="0"/>
        <pt x="537" y="176" on="0"/>
        <pt x="537" y="326" on="1"/>
        <pt x="537" y="424" on="0"/>
        <pt x="635" y="645" on="0"/>
        <pt x="805" y="883" on="1"/>
        <pt x="657" y="1075" on="0"/>
        <pt x="516" y="1194" on="0"/>
        <pt x="463" y="1194" on="1"/>
        <pt x="369" y="1194" on="0"/>
        <pt x="289" y="1081" on="0"/>
        <pt x="289" y="954" on="1"/>
        <pt x="289" y="0" on="1"/>
        <pt x="113" y="0" on="1"/>
        <pt x="113" y="963" on="1"/>
        <pt x="113" y="1350" on="0"/>
        <pt x="451" y="1350" on="1"/>
        <pt x="563" y="1350" on="0"/>
        <pt x="766" y="1208" on="0"/>
        <pt x="903" y="1018" on="1"/>
        <pt x="1053" y="1214" on="0"/>
        <pt x="1249" y="1350" on="0"/>
      </contour>
      <contour>
        <pt x="707" y="352" on="1"/>
        <pt x="707" y="248" on="0"/>
        <pt x="819" y="145" on="0"/>
        <pt x="903" y="145" on="1"/>
        <pt x="989" y="145" on="0"/>
        <pt x="1102" y="248" on="0"/>
        <pt x="1102" y="356" on="1"/>
        <pt x="1102" y="487" on="0"/>
        <pt x="903" y="752" on="1"/>
        <pt x="811" y="625" on="0"/>
        <pt x="707" y="432" on="0"/>
      </contour>
    </TTGlyph>
    <TTGlyph name="uniAAE8" xMin="76" yMin="-14" xMax="1260" yMax="1350">
      <contour>
        <pt x="369" y="1202" on="1"/>
        <pt x="369" y="0" on="1"/>
        <pt x="203" y="0" on="1"/>
        <pt x="203" y="1200" on="1"/>
        <pt x="76" y="1200" on="1"/>
        <pt x="76" y="1350" on="1"/>
        <pt x="1260" y="1350" on="1"/>
        <pt x="1260" y="1202" on="1"/>
      </contour>
      <contour>
        <pt x="489" y="897" on="1"/>
        <pt x="489" y="1040" on="1"/>
        <pt x="911" y="1040" on="1"/>
        <pt x="957" y="1040" on="0"/>
        <pt x="1051" y="1019" on="0"/>
        <pt x="1128" y="967" on="0"/>
        <pt x="1177" y="879" on="0"/>
        <pt x="1177" y="811" on="1"/>
        <pt x="1177" y="793" on="0"/>
        <pt x="1173" y="755" on="0"/>
        <pt x="1169" y="733" on="1"/>
        <pt x="1028" y="-14" on="1"/>
        <pt x="879" y="16" on="1"/>
        <pt x="1012" y="737" on="1"/>
        <pt x="1014" y="751" on="0"/>
        <pt x="1017" y="775" on="0"/>
        <pt x="1017" y="786" on="1"/>
        <pt x="1017" y="847" on="0"/>
        <pt x="947" y="897" on="0"/>
        <pt x="881" y="897" on="1"/>
      </contour>
    </TTGlyph>
    <TTGlyph name="uniAAE9" xMin="96" yMin="-18" xMax="2320" yMax="1350">
      <contour>
        <pt x="96" y="1350" on="1"/>
        <pt x="2320" y="1350" on="1"/>
        <pt x="2320" y="1200" on="1"/>
        <pt x="2245" y="1159" on="0"/>
        <pt x="1939" y="940" on="0"/>
        <pt x="1817" y="829" on="1"/>
        <pt x="1993" y="666" on="0"/>
        <pt x="2118" y="463" on="0"/>
        <pt x="2118" y="360" on="1"/>
        <pt x="2118" y="186" on="0"/>
        <pt x="1894" y="-18" on="0"/>
        <pt x="1712" y="-18" on="1"/>
        <pt x="1526" y="-18" on="0"/>
        <pt x="1305" y="188" on="0"/>
        <pt x="1305" y="360" on="1"/>
        <pt x="1305" y="455" on="0"/>
        <pt x="1421" y="655" on="0"/>
        <pt x="1604" y="831" on="1"/>
        <pt x="1399" y="1012" on="0"/>
        <pt x="1210" y="1141" on="1"/>
        <pt x="1014" y="1008" on="0"/>
        <pt x="813" y="829" on="1"/>
        <pt x="989" y="666" on="0"/>
        <pt x="1114" y="463" on="0"/>
        <pt x="1114" y="360" on="1"/>
        <pt x="1114" y="186" on="0"/>
        <pt x="891" y="-18" on="0"/>
        <pt x="709" y="-18" on="1"/>
        <pt x="522" y="-18" on="0"/>
        <pt x="301" y="188" on="0"/>
        <pt x="301" y="360" on="1"/>
        <pt x="301" y="455" on="0"/>
        <pt x="418" y="655" on="0"/>
        <pt x="600" y="831" on="1"/>
        <pt x="481" y="936" on="0"/>
        <pt x="184" y="1151" on="0"/>
        <pt x="96" y="1200" on="1"/>
      </contour>
      <contour>
        <pt x="1483" y="367" on="1"/>
        <pt x="1483" y="258" on="0"/>
        <pt x="1610" y="127" on="0"/>
        <pt x="1712" y="127" on="1"/>
        <pt x="1812" y="127" on="0"/>
        <pt x="1939" y="262" on="0"/>
        <pt x="1939" y="367" on="1"/>
        <pt x="1939" y="532" on="0"/>
        <pt x="1712" y="715" on="1"/>
        <pt x="1483" y="549" on="0"/>
      </contour>
      <contour>
        <pt x="479" y="367" on="1"/>
        <pt x="479" y="258" on="0"/>
        <pt x="606" y="127" on="0"/>
        <pt x="709" y="127" on="1"/>
        <pt x="809" y="127" on="0"/>
        <pt x="936" y="262" on="0"/>
        <pt x="936" y="367" on="1"/>
        <pt x="936" y="532" on="0"/>
        <pt x="709" y="715" on="1"/>
        <pt x="479" y="549" on="0"/>
      </contour>
      <contour>
        <pt x="1364" y="1200" on="1"/>
        <pt x="1528" y="1077" on="0"/>
        <pt x="1712" y="928" on="1"/>
        <pt x="1866" y="1063" on="0"/>
        <pt x="2073" y="1200" on="1"/>
      </contour>
      <contour>
        <pt x="360" y="1200" on="1"/>
        <pt x="524" y="1077" on="0"/>
        <pt x="709" y="928" on="1"/>
        <pt x="862" y="1063" on="0"/>
        <pt x="1069" y="1200" on="1"/>
      </contour>
    </TTGlyph>
    <TTGlyph name="uniAAEA" xMin="80" yMin="0" xMax="1167" yMax="1360">
      <contour>
        <pt x="1167" y="0" on="1"/>
        <pt x="80" y="0" on="1"/>
        <pt x="80" y="791" on="1"/>
        <pt x="80" y="1055" on="0"/>
        <pt x="373" y="1360" on="0"/>
        <pt x="621" y="1360" on="1"/>
        <pt x="877" y="1360" on="0"/>
        <pt x="1167" y="1057" on="0"/>
        <pt x="1167" y="791" on="1"/>
      </contour>
      <contour>
        <pt x="250" y="145" on="1"/>
        <pt x="999" y="145" on="1"/>
        <pt x="999" y="578" on="1"/>
        <pt x="250" y="578" on="1"/>
      </contour>
      <contour>
        <pt x="999" y="817" on="1"/>
        <pt x="999" y="1004" on="0"/>
        <pt x="803" y="1204" on="0"/>
        <pt x="623" y="1204" on="1"/>
        <pt x="444" y="1204" on="0"/>
        <pt x="250" y="1001" on="0"/>
        <pt x="250" y="817" on="1"/>
        <pt x="250" y="723" on="1"/>
        <pt x="999" y="723" on="1"/>
      </contour>
    </TTGlyph>
    <TTGlyph name="uniAAEB" xMin="39" yMin="-4" xMax="778" yMax="1731">
      <contour>
        <pt x="410" y="-4" on="1"/>
        <pt x="410" y="1196" on="1"/>
        <pt x="39" y="1206" on="0"/>
        <pt x="39" y="1475" on="1"/>
        <pt x="39" y="1589" on="0"/>
        <pt x="184" y="1731" on="0"/>
        <pt x="305" y="1731" on="1"/>
        <pt x="584" y="1731" on="0"/>
        <pt x="584" y="1460" on="1"/>
        <pt x="584" y="1354" on="1"/>
        <pt x="778" y="1354" on="1"/>
        <pt x="778" y="1196" on="1"/>
        <pt x="584" y="1196" on="1"/>
        <pt x="584" y="-4" on="1"/>
      </contour>
      <contour>
        <pt x="410" y="1460" on="1"/>
        <pt x="410" y="1532" on="0"/>
        <pt x="360" y="1585" on="0"/>
        <pt x="309" y="1585" on="1"/>
        <pt x="211" y="1585" on="0"/>
        <pt x="211" y="1477" on="1"/>
        <pt x="211" y="1401" on="0"/>
        <pt x="317" y="1354" on="0"/>
        <pt x="410" y="1354" on="1"/>
      </contour>
    </TTGlyph>
    <TTGlyph name="uniAAEC" xMin="-811" yMin="-412" xMax="-127" yMax="-123">
      <contour>
        <pt x="-135" y="-123" on="1"/>
        <pt x="-127" y="-139" on="0"/>
        <pt x="-127" y="-209" on="1"/>
        <pt x="-127" y="-412" on="0"/>
        <pt x="-319" y="-412" on="1"/>
        <pt x="-420" y="-412" on="0"/>
        <pt x="-467" y="-332" on="1"/>
        <pt x="-514" y="-412" on="0"/>
        <pt x="-621" y="-412" on="1"/>
        <pt x="-811" y="-412" on="0"/>
        <pt x="-811" y="-209" on="1"/>
        <pt x="-803" y="-123" on="1"/>
        <pt x="-690" y="-123" on="1"/>
        <pt x="-696" y="-203" on="1"/>
        <pt x="-696" y="-299" on="0"/>
        <pt x="-614" y="-299" on="1"/>
        <pt x="-582" y="-299" on="0"/>
        <pt x="-526" y="-260" on="0"/>
        <pt x="-526" y="-217" on="1"/>
        <pt x="-526" y="-123" on="1"/>
        <pt x="-408" y="-123" on="1"/>
        <pt x="-408" y="-217" on="1"/>
        <pt x="-408" y="-256" on="0"/>
        <pt x="-358" y="-299" on="0"/>
        <pt x="-326" y="-299" on="1"/>
        <pt x="-279" y="-299" on="0"/>
        <pt x="-242" y="-252" on="0"/>
        <pt x="-242" y="-203" on="1"/>
        <pt x="-248" y="-123" on="1"/>
      </contour>
    </TTGlyph>
    <TTGlyph name="uniAAED" xMin="-1020" yMin="1454" xMax="-528" yMax="2132">
      <contour>
        <pt x="-948" y="2132" on="1"/>
        <pt x="-748" y="2013" on="0"/>
        <pt x="-528" y="1761" on="0"/>
        <pt x="-528" y="1653" on="1"/>
        <pt x="-528" y="1563" on="0"/>
        <pt x="-645" y="1454" on="0"/>
        <pt x="-741" y="1454" on="1"/>
        <pt x="-838" y="1454" on="0"/>
        <pt x="-950" y="1565" on="0"/>
        <pt x="-950" y="1657" on="1"/>
        <pt x="-950" y="1729" on="0"/>
        <pt x="-877" y="1827" on="0"/>
        <pt x="-813" y="1872" on="1"/>
        <pt x="-848" y="1911" on="0"/>
        <pt x="-958" y="1980" on="0"/>
        <pt x="-1020" y="2019" on="1"/>
      </contour>
      <contour>
        <pt x="-666" y="1663" on="1"/>
        <pt x="-666" y="1745" on="0"/>
        <pt x="-725" y="1796" on="1"/>
        <pt x="-821" y="1733" on="0"/>
        <pt x="-821" y="1657" on="1"/>
        <pt x="-821" y="1616" on="0"/>
        <pt x="-778" y="1573" on="0"/>
        <pt x="-745" y="1573" on="1"/>
        <pt x="-719" y="1573" on="0"/>
        <pt x="-666" y="1616" on="0"/>
      </contour>
    </TTGlyph>
    <TTGlyph name="uniAAEE" xMin="39" yMin="-4" xMax="739" yMax="1731">
      <contour>
        <pt x="410" y="-4" on="1"/>
        <pt x="410" y="1196" on="1"/>
        <pt x="387" y="1196" on="1"/>
        <pt x="219" y="1196" on="0"/>
        <pt x="39" y="1341" on="0"/>
        <pt x="39" y="1475" on="1"/>
        <pt x="39" y="1589" on="0"/>
        <pt x="184" y="1731" on="0"/>
        <pt x="305" y="1731" on="1"/>
        <pt x="584" y="1731" on="0"/>
        <pt x="584" y="1460" on="1"/>
        <pt x="584" y="1083" on="1"/>
        <pt x="739" y="1083" on="1"/>
        <pt x="739" y="926" on="1"/>
        <pt x="584" y="926" on="1"/>
        <pt x="584" y="-4" on="1"/>
      </contour>
      <contour>
        <pt x="410" y="1460" on="1"/>
        <pt x="410" y="1532" on="0"/>
        <pt x="360" y="1585" on="0"/>
        <pt x="309" y="1585" on="1"/>
        <pt x="211" y="1585" on="0"/>
        <pt x="211" y="1477" on="1"/>
        <pt x="211" y="1352" on="0"/>
        <pt x="371" y="1352" on="1"/>
        <pt x="391" y="1352" on="1"/>
        <pt x="410" y="1354" on="1"/>
      </contour>
    </TTGlyph>
    <TTGlyph name="uniAAEF" xMin="39" yMin="-4" xMax="739" yMax="1731">
      <contour>
        <pt x="195" y="-4" on="1"/>
        <pt x="195" y="926" on="1"/>
        <pt x="39" y="926" on="1"/>
        <pt x="39" y="1083" on="1"/>
        <pt x="195" y="1083" on="1"/>
        <pt x="195" y="1460" on="1"/>
        <pt x="195" y="1731" on="0"/>
        <pt x="473" y="1731" on="1"/>
        <pt x="592" y="1731" on="0"/>
        <pt x="739" y="1591" on="0"/>
        <pt x="739" y="1475" on="1"/>
        <pt x="739" y="1341" on="0"/>
        <pt x="561" y="1196" on="0"/>
        <pt x="391" y="1196" on="1"/>
        <pt x="369" y="1196" on="1"/>
        <pt x="369" y="-4" on="1"/>
      </contour>
      <contour>
        <pt x="369" y="1354" on="1"/>
        <pt x="389" y="1352" on="1"/>
        <pt x="408" y="1352" on="1"/>
        <pt x="567" y="1352" on="0"/>
        <pt x="567" y="1477" on="1"/>
        <pt x="567" y="1585" on="0"/>
        <pt x="469" y="1585" on="1"/>
        <pt x="418" y="1585" on="0"/>
        <pt x="369" y="1532" on="0"/>
        <pt x="369" y="1460" on="1"/>
      </contour>
    </TTGlyph>
    <TTGlyph name="uniAAF0" xMin="176" yMin="-61" xMax="344" yMax="1409">
      <contour>
        <pt x="176" y="-61" on="1"/>
        <pt x="176" y="1409" on="1"/>
        <pt x="344" y="1409" on="1"/>
        <pt x="344" y="-61" on="1"/>
      </contour>
    </TTGlyph>
    <TTGlyph name="uniAAF1" xMin="76" yMin="170" xMax="1243" yMax="983">
      <contour>
        <pt x="1243" y="885" on="1"/>
        <pt x="1135" y="750" on="0"/>
        <pt x="844" y="639" on="0"/>
        <pt x="657" y="639" on="1"/>
        <pt x="467" y="639" on="0"/>
        <pt x="184" y="745" on="0"/>
        <pt x="76" y="885" on="1"/>
        <pt x="184" y="983" on="1"/>
        <pt x="346" y="780" on="0"/>
        <pt x="657" y="780" on="1"/>
        <pt x="811" y="780" on="0"/>
        <pt x="1047" y="870" on="0"/>
        <pt x="1137" y="983" on="1"/>
      </contour>
      <contour>
        <pt x="1137" y="170" on="1"/>
        <pt x="1047" y="285" on="0"/>
        <pt x="811" y="375" on="0"/>
        <pt x="657" y="375" on="1"/>
        <pt x="506" y="375" on="0"/>
        <pt x="272" y="283" on="0"/>
        <pt x="184" y="170" on="1"/>
        <pt x="76" y="270" on="1"/>
        <pt x="186" y="408" on="0"/>
        <pt x="465" y="514" on="0"/>
        <pt x="657" y="514" on="1"/>
        <pt x="844" y="514" on="0"/>
        <pt x="1135" y="406" on="0"/>
        <pt x="1243" y="270" on="1"/>
      </contour>
    </TTGlyph>
    <TTGlyph name="uniAAF2" xMin="104" yMin="-6" xMax="852" yMax="1741">
      <contour>
        <pt x="852" y="225" on="1"/>
        <pt x="721" y="-6" on="0"/>
        <pt x="469" y="-6" on="1"/>
        <pt x="303" y="-6" on="0"/>
        <pt x="104" y="168" on="0"/>
        <pt x="104" y="313" on="1"/>
        <pt x="104" y="403" on="0"/>
        <pt x="219" y="561" on="0"/>
        <pt x="424" y="711" on="1"/>
        <pt x="575" y="821" on="0"/>
        <pt x="635" y="879" on="0"/>
        <pt x="666" y="934" on="0"/>
        <pt x="666" y="971" on="1"/>
        <pt x="666" y="1051" on="0"/>
        <pt x="567" y="1135" on="0"/>
        <pt x="485" y="1135" on="1"/>
        <pt x="336" y="1135" on="0"/>
        <pt x="266" y="989" on="1"/>
        <pt x="127" y="1059" on="1"/>
        <pt x="238" y="1274" on="0"/>
        <pt x="485" y="1274" on="1"/>
        <pt x="637" y="1274" on="0"/>
        <pt x="819" y="1106" on="0"/>
        <pt x="819" y="963" on="1"/>
        <pt x="819" y="809" on="0"/>
        <pt x="616" y="672" on="1"/>
        <pt x="401" y="522" on="0"/>
        <pt x="262" y="373" on="0"/>
        <pt x="262" y="305" on="1"/>
        <pt x="262" y="215" on="0"/>
        <pt x="383" y="133" on="0"/>
        <pt x="467" y="133" on="1"/>
        <pt x="627" y="133" on="0"/>
        <pt x="727" y="311" on="1"/>
      </contour>
      <contour>
        <pt x="393" y="1657" on="1"/>
        <pt x="393" y="1692" on="0"/>
        <pt x="442" y="1741" on="0"/>
        <pt x="477" y="1741" on="1"/>
        <pt x="512" y="1741" on="0"/>
        <pt x="561" y="1692" on="0"/>
        <pt x="561" y="1657" on="1"/>
        <pt x="561" y="1622" on="0"/>
        <pt x="512" y="1573" on="0"/>
        <pt x="477" y="1573" on="1"/>
        <pt x="442" y="1573" on="0"/>
        <pt x="393" y="1622" on="0"/>
      </contour>
      <contour>
        <pt x="279" y="1593" on="1"/>
        <pt x="340" y="1460" on="0"/>
        <pt x="479" y="1460" on="1"/>
        <pt x="625" y="1460" on="0"/>
        <pt x="680" y="1589" on="1"/>
        <pt x="801" y="1548" on="1"/>
        <pt x="768" y="1454" on="0"/>
        <pt x="600" y="1350" on="0"/>
        <pt x="479" y="1350" on="1"/>
        <pt x="233" y="1350" on="0"/>
        <pt x="158" y="1548" on="1"/>
      </contour>
    </TTGlyph>
    <TTGlyph name="uniAAF3" xMin="92" yMin="-18" xMax="1272" yMax="1350">
      <contour>
        <pt x="682" y="635" on="1"/>
        <pt x="809" y="733" on="0"/>
        <pt x="911" y="887" on="0"/>
        <pt x="911" y="975" on="1"/>
        <pt x="911" y="1081" on="0"/>
        <pt x="786" y="1204" on="0"/>
        <pt x="682" y="1204" on="1"/>
        <pt x="578" y="1204" on="0"/>
        <pt x="453" y="1081" on="0"/>
        <pt x="453" y="975" on="1"/>
        <pt x="453" y="887" on="0"/>
        <pt x="553" y="739" on="0"/>
      </contour>
      <contour>
        <pt x="678" y="1350" on="1"/>
        <pt x="868" y="1350" on="0"/>
        <pt x="1090" y="1153" on="0"/>
        <pt x="1090" y="981" on="1"/>
        <pt x="1090" y="874" on="0"/>
        <pt x="956" y="672" on="0"/>
        <pt x="788" y="535" on="1"/>
        <pt x="928" y="401" on="0"/>
        <pt x="1272" y="100" on="1"/>
        <pt x="1165" y="-18" on="1"/>
        <pt x="682" y="438" on="1"/>
        <pt x="199" y="-18" on="1"/>
        <pt x="92" y="100" on="1"/>
        <pt x="461" y="430" on="0"/>
        <pt x="573" y="532" on="1"/>
        <pt x="403" y="672" on="0"/>
        <pt x="274" y="872" on="0"/>
        <pt x="274" y="981" on="1"/>
        <pt x="274" y="1155" on="0"/>
        <pt x="494" y="1350" on="0"/>
      </contour>
    </TTGlyph>
    <TTGlyph name="uniAAF4" xMin="80" yMin="-18" xMax="690" yMax="1350">
      <contour>
        <pt x="80" y="1346" on="1"/>
        <pt x="154" y="1350" on="1"/>
        <pt x="332" y="1350" on="0"/>
        <pt x="547" y="1155" on="0"/>
        <pt x="547" y="981" on="1"/>
        <pt x="547" y="856" on="0"/>
        <pt x="416" y="653" on="0"/>
        <pt x="285" y="537" on="1"/>
        <pt x="479" y="315" on="1"/>
        <pt x="690" y="82" on="1"/>
        <pt x="571" y="-18" on="1"/>
        <pt x="481" y="82" on="0"/>
        <pt x="84" y="551" on="1"/>
        <pt x="242" y="688" on="0"/>
        <pt x="373" y="868" on="0"/>
        <pt x="373" y="965" on="1"/>
        <pt x="373" y="1079" on="0"/>
        <pt x="242" y="1192" on="0"/>
        <pt x="139" y="1192" on="1"/>
        <pt x="119" y="1192" on="1"/>
        <pt x="98" y="1190" on="1"/>
      </contour>
    </TTGlyph>
    <TTGlyph name="uniAAF5" xMin="41" yMin="0" xMax="594" yMax="741">
      <contour>
        <pt x="227" y="0" on="1"/>
        <pt x="227" y="242" on="1"/>
        <pt x="166" y="259" on="0"/>
        <pt x="119" y="303" on="1"/>
        <pt x="41" y="375" on="0"/>
        <pt x="41" y="481" on="1"/>
        <pt x="41" y="592" on="0"/>
        <pt x="199" y="741" on="0"/>
        <pt x="311" y="741" on="1"/>
        <pt x="432" y="741" on="0"/>
        <pt x="594" y="590" on="0"/>
        <pt x="594" y="481" on="1"/>
        <pt x="594" y="375" on="0"/>
        <pt x="512" y="303" on="1"/>
        <pt x="460" y="258" on="0"/>
        <pt x="395" y="241" on="1"/>
        <pt x="395" y="0" on="1"/>
      </contour>
      <contour>
        <pt x="311" y="612" on="1"/>
        <pt x="260" y="612" on="0"/>
        <pt x="190" y="541" on="0"/>
        <pt x="190" y="487" on="1"/>
        <pt x="190" y="432" on="0"/>
        <pt x="260" y="362" on="0"/>
        <pt x="311" y="362" on="1"/>
        <pt x="367" y="362" on="0"/>
        <pt x="438" y="432" on="0"/>
        <pt x="438" y="487" on="1"/>
        <pt x="438" y="541" on="0"/>
        <pt x="367" y="612" on="0"/>
      </contour>
    </TTGlyph>
    <TTGlyph name="uniAAF6" xMin="-1251" yMin="-651" xMax="-784" yMax="-184">
      <contour>
        <pt x="-1085" y="-651" on="1"/>
        <pt x="-1085" y="-481" on="1"/>
        <pt x="-1251" y="-481" on="1"/>
        <pt x="-1251" y="-352" on="1"/>
        <pt x="-1085" y="-352" on="1"/>
        <pt x="-1085" y="-184" on="1"/>
        <pt x="-948" y="-184" on="1"/>
        <pt x="-948" y="-352" on="1"/>
        <pt x="-784" y="-352" on="1"/>
        <pt x="-784" y="-481" on="1"/>
        <pt x="-948" y="-481" on="1"/>
        <pt x="-948" y="-651" on="1"/>
      </contour>
    </TTGlyph>
    <TTGlyph name="uniABC0" xMin="68" yMin="0" xMax="1675" yMax="1350">
      <contour>
        <pt x="1597" y="0" on="1"/>
        <pt x="135" y="0" on="1"/>
        <pt x="135" y="1198" on="1"/>
        <pt x="68" y="1198" on="1"/>
        <pt x="68" y="1350" on="1"/>
        <pt x="1675" y="1350" on="1"/>
        <pt x="1675" y="1198" on="1"/>
        <pt x="1597" y="1198" on="1"/>
      </contour>
      <contour>
        <pt x="1434" y="141" on="1"/>
        <pt x="1434" y="1026" on="1"/>
        <pt x="1159" y="813" on="1"/>
        <pt x="1159" y="141" on="1"/>
      </contour>
      <contour>
        <pt x="305" y="330" on="1"/>
        <pt x="573" y="535" on="1"/>
        <pt x="573" y="1198" on="1"/>
        <pt x="305" y="1198" on="1"/>
      </contour>
      <contour>
        <pt x="741" y="141" on="1"/>
        <pt x="995" y="141" on="1"/>
        <pt x="995" y="686" on="1"/>
        <pt x="741" y="489" on="1"/>
      </contour>
      <contour>
        <pt x="741" y="662" on="1"/>
        <pt x="995" y="856" on="1"/>
        <pt x="995" y="1198" on="1"/>
        <pt x="741" y="1198" on="1"/>
      </contour>
      <contour>
        <pt x="1434" y="1198" on="1"/>
        <pt x="1159" y="1198" on="1"/>
        <pt x="1159" y="979" on="1"/>
        <pt x="1434" y="1188" on="1"/>
      </contour>
      <contour>
        <pt x="305" y="141" on="1"/>
        <pt x="573" y="141" on="1"/>
        <pt x="573" y="360" on="1"/>
        <pt x="305" y="152" on="1"/>
      </contour>
    </TTGlyph>
    <TTGlyph name="uniABC1" xMin="78" yMin="-2" xMax="1595" yMax="1370">
      <contour>
        <pt x="1034" y="158" on="1"/>
        <pt x="1223" y="166" on="0"/>
        <pt x="1427" y="483" on="0"/>
        <pt x="1427" y="764" on="1"/>
        <pt x="1427" y="923" on="0"/>
        <pt x="1379" y="1119" on="0"/>
        <pt x="1287" y="1210" on="0"/>
        <pt x="1200" y="1210" on="1"/>
        <pt x="1104" y="1210" on="0"/>
        <pt x="991" y="1104" on="0"/>
        <pt x="930" y="881" on="0"/>
        <pt x="928" y="700" on="1"/>
        <pt x="760" y="700" on="1"/>
        <pt x="757" y="958" on="0"/>
        <pt x="632" y="1208" on="0"/>
        <pt x="500" y="1208" on="1"/>
        <pt x="409" y="1208" on="0"/>
        <pt x="308" y="1118" on="0"/>
        <pt x="256" y="924" on="0"/>
        <pt x="256" y="762" on="1"/>
        <pt x="256" y="472" on="0"/>
        <pt x="458" y="162" on="0"/>
        <pt x="649" y="158" on="1"/>
        <pt x="649" y="-2" on="1"/>
        <pt x="478" y="1" on="0"/>
        <pt x="218" y="189" on="0"/>
        <pt x="78" y="535" on="0"/>
        <pt x="78" y="762" on="1"/>
        <pt x="78" y="961" on="0"/>
        <pt x="184" y="1232" on="0"/>
        <pt x="375" y="1368" on="0"/>
        <pt x="510" y="1368" on="1"/>
        <pt x="775" y="1368" on="0"/>
        <pt x="840" y="1083" on="1"/>
        <pt x="848" y="1083" on="1"/>
        <pt x="889" y="1224" on="0"/>
        <pt x="1073" y="1370" on="0"/>
        <pt x="1214" y="1370" on="1"/>
        <pt x="1402" y="1370" on="0"/>
        <pt x="1595" y="1058" on="0"/>
        <pt x="1595" y="764" on="1"/>
        <pt x="1595" y="532" on="0"/>
        <pt x="1462" y="192" on="0"/>
        <pt x="1205" y="3" on="0"/>
        <pt x="1034" y="-2" on="1"/>
      </contour>
    </TTGlyph>
    <TTGlyph name="uniABC2" xMin="57" yMin="-8" xMax="1188" yMax="1350">
      <contour>
        <pt x="946" y="727" on="1"/>
        <pt x="823" y="893" on="0"/>
        <pt x="606" y="893" on="1"/>
        <pt x="450" y="893" on="0"/>
        <pt x="285" y="697" on="0"/>
        <pt x="285" y="516" on="1"/>
        <pt x="285" y="341" on="0"/>
        <pt x="463" y="143" on="0"/>
        <pt x="623" y="143" on="1"/>
        <pt x="740" y="143" on="0"/>
        <pt x="969" y="240" on="0"/>
        <pt x="1059" y="322" on="1"/>
        <pt x="1165" y="207" on="1"/>
        <pt x="1049" y="103" on="0"/>
        <pt x="787" y="-8" on="0"/>
        <pt x="623" y="-8" on="1"/>
        <pt x="392" y="-8" on="0"/>
        <pt x="109" y="267" on="0"/>
        <pt x="109" y="518" on="1"/>
        <pt x="109" y="1036" on="0"/>
        <pt x="594" y="1036" on="1"/>
        <pt x="784" y="1036" on="0"/>
        <pt x="946" y="926" on="1"/>
        <pt x="946" y="1200" on="1"/>
        <pt x="57" y="1200" on="1"/>
        <pt x="57" y="1350" on="1"/>
        <pt x="1188" y="1350" on="1"/>
        <pt x="1188" y="1200" on="1"/>
        <pt x="1114" y="1200" on="1"/>
        <pt x="1114" y="727" on="1"/>
      </contour>
    </TTGlyph>
    <TTGlyph name="uniABC3" xMin="70" yMin="-6" xMax="1389" yMax="1350">
      <contour>
        <pt x="1110" y="338" on="1"/>
        <pt x="1110" y="248" on="0"/>
        <pt x="1211" y="145" on="0"/>
        <pt x="1307" y="145" on="1"/>
        <pt x="1331" y="145" on="0"/>
        <pt x="1356" y="150" on="1"/>
        <pt x="1389" y="4" on="1"/>
        <pt x="1351" y="-6" on="0"/>
        <pt x="1282" y="-6" on="1"/>
        <pt x="1130" y="-6" on="0"/>
        <pt x="954" y="166" on="0"/>
        <pt x="954" y="307" on="1"/>
        <pt x="954" y="467" on="0"/>
        <pt x="1063" y="557" on="1"/>
        <pt x="760" y="557" on="1"/>
        <pt x="760" y="0" on="1"/>
        <pt x="594" y="0" on="1"/>
        <pt x="594" y="557" on="1"/>
        <pt x="307" y="557" on="1"/>
        <pt x="307" y="0" on="1"/>
        <pt x="141" y="0" on="1"/>
        <pt x="141" y="1200" on="1"/>
        <pt x="70" y="1200" on="1"/>
        <pt x="70" y="1350" on="1"/>
        <pt x="1372" y="1350" on="1"/>
        <pt x="1372" y="1200" on="1"/>
        <pt x="760" y="1200" on="1"/>
        <pt x="760" y="702" on="1"/>
        <pt x="1309" y="702" on="1"/>
        <pt x="1307" y="557" on="1"/>
        <pt x="1219" y="548" on="0"/>
        <pt x="1110" y="422" on="0"/>
      </contour>
      <contour>
        <pt x="307" y="702" on="1"/>
        <pt x="594" y="702" on="1"/>
        <pt x="594" y="1200" on="1"/>
        <pt x="307" y="1200" on="1"/>
      </contour>
    </TTGlyph>
    <TTGlyph name="uniABC4" xMin="68" yMin="0" xMax="1954" yMax="1350">
      <contour>
        <pt x="1118" y="0" on="1"/>
        <pt x="1118" y="1200" on="1"/>
        <pt x="903" y="1200" on="1"/>
        <pt x="903" y="0" on="1"/>
        <pt x="735" y="0" on="1"/>
        <pt x="735" y="1200" on="1"/>
        <pt x="309" y="1200" on="1"/>
        <pt x="439" y="1043" on="0"/>
        <pt x="580" y="711" on="0"/>
        <pt x="580" y="557" on="1"/>
        <pt x="580" y="418" on="0"/>
        <pt x="467" y="179" on="0"/>
        <pt x="258" y="24" on="0"/>
        <pt x="115" y="0" on="1"/>
        <pt x="68" y="150" on="1"/>
        <pt x="232" y="185" on="0"/>
        <pt x="412" y="409" on="0"/>
        <pt x="412" y="584" on="1"/>
        <pt x="412" y="737" on="0"/>
        <pt x="239" y="1070" on="0"/>
        <pt x="98" y="1200" on="1"/>
        <pt x="98" y="1350" on="1"/>
        <pt x="1923" y="1350" on="1"/>
        <pt x="1923" y="1200" on="1"/>
        <pt x="1771" y="1064" on="0"/>
        <pt x="1610" y="741" on="0"/>
        <pt x="1610" y="584" on="1"/>
        <pt x="1610" y="412" on="0"/>
        <pt x="1790" y="185" on="0"/>
        <pt x="1954" y="150" on="1"/>
        <pt x="1909" y="0" on="1"/>
        <pt x="1766" y="24" on="0"/>
        <pt x="1555" y="178" on="0"/>
        <pt x="1442" y="415" on="0"/>
        <pt x="1442" y="557" on="1"/>
        <pt x="1442" y="712" on="0"/>
        <pt x="1585" y="1049" on="0"/>
        <pt x="1710" y="1200" on="1"/>
        <pt x="1286" y="1200" on="1"/>
        <pt x="1286" y="0" on="1"/>
      </contour>
    </TTGlyph>
    <TTGlyph name="uniABC5" xMin="94" yMin="-14" xMax="1403" yMax="1350">
      <contour>
        <pt x="1303" y="201" on="1"/>
        <pt x="1054" y="-14" on="0"/>
        <pt x="764" y="-14" on="1"/>
        <pt x="585" y="-14" on="0"/>
        <pt x="298" y="151" on="0"/>
        <pt x="139" y="455" on="0"/>
        <pt x="139" y="659" on="1"/>
        <pt x="139" y="906" on="0"/>
        <pt x="231" y="1200" on="1"/>
        <pt x="94" y="1200" on="1"/>
        <pt x="94" y="1350" on="1"/>
        <pt x="1403" y="1350" on="1"/>
        <pt x="1403" y="1200" on="1"/>
        <pt x="1300" y="1200" on="1"/>
        <pt x="1073" y="762" on="1"/>
        <pt x="922" y="842" on="1"/>
        <pt x="1116" y="1200" on="1"/>
        <pt x="428" y="1200" on="1"/>
        <pt x="322" y="926" on="0"/>
        <pt x="322" y="659" on="1"/>
        <pt x="322" y="502" on="0"/>
        <pt x="432" y="274" on="0"/>
        <pt x="635" y="152" on="0"/>
        <pt x="768" y="152" on="1"/>
        <pt x="996" y="152" on="0"/>
        <pt x="1202" y="326" on="1"/>
      </contour>
    </TTGlyph>
    <TTGlyph name="uniABC6" xMin="25" yMin="0" xMax="1501" yMax="1350">
      <contour>
        <pt x="47" y="1350" on="1"/>
        <pt x="1477" y="1350" on="1"/>
        <pt x="1477" y="1200" on="1"/>
        <pt x="1336" y="1068" on="0"/>
        <pt x="1165" y="731" on="0"/>
        <pt x="1165" y="584" on="1"/>
        <pt x="1165" y="410" on="0"/>
        <pt x="1339" y="185" on="0"/>
        <pt x="1501" y="150" on="1"/>
        <pt x="1454" y="0" on="1"/>
        <pt x="1316" y="21" on="0"/>
        <pt x="1111" y="172" on="0"/>
        <pt x="1002" y="403" on="0"/>
        <pt x="999" y="545" on="1"/>
        <pt x="526" y="545" on="1"/>
        <pt x="521" y="324" on="0"/>
        <pt x="276" y="32" on="0"/>
        <pt x="72" y="0" on="1"/>
        <pt x="25" y="150" on="1"/>
        <pt x="188" y="185" on="0"/>
        <pt x="362" y="410" on="0"/>
        <pt x="362" y="584" on="1"/>
        <pt x="362" y="745" on="0"/>
        <pt x="195" y="1071" on="0"/>
        <pt x="47" y="1200" on="1"/>
      </contour>
      <contour>
        <pt x="512" y="692" on="1"/>
        <pt x="1014" y="692" on="1"/>
        <pt x="1064" y="949" on="0"/>
        <pt x="1274" y="1200" on="1"/>
        <pt x="260" y="1200" on="1"/>
        <pt x="466" y="949" on="0"/>
      </contour>
    </TTGlyph>
    <TTGlyph name="uniABC7" xMin="57" yMin="-6" xMax="1522" yMax="1466">
      <contour>
        <pt x="117" y="1350" on="1"/>
        <pt x="727" y="1350" on="1"/>
        <pt x="957" y="1350" on="0"/>
        <pt x="1145" y="1272" on="1"/>
        <pt x="1293" y="1410" on="0"/>
        <pt x="1360" y="1466" on="1"/>
        <pt x="1464" y="1354" on="1"/>
        <pt x="1328" y="1242" on="0"/>
        <pt x="1286" y="1200" on="1"/>
        <pt x="1411" y="1119" on="0"/>
        <pt x="1522" y="942" on="0"/>
        <pt x="1522" y="836" on="1"/>
        <pt x="1522" y="743" on="0"/>
        <pt x="1441" y="605" on="0"/>
        <pt x="1298" y="532" on="0"/>
        <pt x="1210" y="532" on="1"/>
        <pt x="1063" y="532" on="0"/>
        <pt x="891" y="703" on="0"/>
        <pt x="891" y="852" on="1"/>
        <pt x="891" y="922" on="0"/>
        <pt x="968" y="1079" on="0"/>
        <pt x="1038" y="1153" on="1"/>
        <pt x="910" y="1200" on="0"/>
        <pt x="713" y="1200" on="1"/>
        <pt x="362" y="1200" on="1"/>
        <pt x="559" y="1014" on="0"/>
        <pt x="778" y="612" on="0"/>
        <pt x="778" y="428" on="1"/>
        <pt x="778" y="231" on="0"/>
        <pt x="565" y="-6" on="0"/>
        <pt x="393" y="-6" on="1"/>
        <pt x="190" y="-6" on="0"/>
        <pt x="57" y="162" on="1"/>
        <pt x="182" y="270" on="1"/>
        <pt x="227" y="208" on="0"/>
        <pt x="334" y="147" on="0"/>
        <pt x="385" y="147" on="1"/>
        <pt x="487" y="147" on="0"/>
        <pt x="604" y="306" on="0"/>
        <pt x="604" y="436" on="1"/>
        <pt x="604" y="624" on="0"/>
        <pt x="338" y="1041" on="0"/>
        <pt x="117" y="1200" on="1"/>
      </contour>
      <contour>
        <pt x="1049" y="852" on="1"/>
        <pt x="1049" y="763" on="0"/>
        <pt x="1133" y="666" on="0"/>
        <pt x="1210" y="666" on="1"/>
        <pt x="1279" y="666" on="0"/>
        <pt x="1366" y="759" on="0"/>
        <pt x="1366" y="836" on="1"/>
        <pt x="1366" y="915" on="0"/>
        <pt x="1265" y="1056" on="0"/>
        <pt x="1176" y="1104" on="1"/>
        <pt x="1049" y="970" on="0"/>
      </contour>
    </TTGlyph>
    <TTGlyph name="uniABC8" xMin="59" yMin="0" xMax="1421" yMax="1350">
      <contour>
        <pt x="70" y="1350" on="1"/>
        <pt x="1421" y="1350" on="1"/>
        <pt x="1421" y="1200" on="1"/>
        <pt x="264" y="1200" on="1"/>
        <pt x="491" y="928" on="0"/>
        <pt x="528" y="707" on="1"/>
        <pt x="581" y="818" on="0"/>
        <pt x="745" y="928" on="0"/>
        <pt x="870" y="928" on="1"/>
        <pt x="966" y="928" on="0"/>
        <pt x="1124" y="853" on="0"/>
        <pt x="1210" y="717" on="0"/>
        <pt x="1210" y="627" on="1"/>
        <pt x="1210" y="581" on="0"/>
        <pt x="1191" y="500" on="1"/>
        <pt x="1171" y="418" on="0"/>
        <pt x="1171" y="377" on="1"/>
        <pt x="1171" y="313" on="0"/>
        <pt x="1231" y="313" on="1"/>
        <pt x="1270" y="313" on="0"/>
        <pt x="1307" y="348" on="1"/>
        <pt x="1409" y="240" on="1"/>
        <pt x="1333" y="164" on="0"/>
        <pt x="1223" y="164" on="1"/>
        <pt x="1126" y="164" on="0"/>
        <pt x="1008" y="279" on="0"/>
        <pt x="1008" y="377" on="1"/>
        <pt x="1008" y="409" on="0"/>
        <pt x="1037" y="583" on="1"/>
        <pt x="1042" y="627" on="1"/>
        <pt x="1042" y="696" on="0"/>
        <pt x="945" y="782" on="0"/>
        <pt x="864" y="782" on="1"/>
        <pt x="746" y="782" on="0"/>
        <pt x="596" y="610" on="0"/>
        <pt x="545" y="412" on="1"/>
        <pt x="505" y="247" on="0"/>
        <pt x="284" y="37" on="0"/>
        <pt x="106" y="0" on="1"/>
        <pt x="59" y="147" on="1"/>
        <pt x="223" y="188" on="0"/>
        <pt x="395" y="399" on="0"/>
        <pt x="395" y="561" on="1"/>
        <pt x="395" y="712" on="0"/>
        <pt x="213" y="1067" on="0"/>
        <pt x="70" y="1200" on="1"/>
      </contour>
    </TTGlyph>
    <TTGlyph name="uniABC9" xMin="12" yMin="0" xMax="1704" yMax="1350">
      <contour>
        <pt x="12" y="651" on="1"/>
        <pt x="79" y="682" on="0"/>
        <pt x="182" y="682" on="1"/>
        <pt x="332" y="682" on="0"/>
        <pt x="504" y="528" on="0"/>
        <pt x="504" y="387" on="1"/>
        <pt x="504" y="254" on="0"/>
        <pt x="408" y="147" on="1"/>
        <pt x="602" y="147" on="1"/>
        <pt x="602" y="1350" on="1"/>
        <pt x="1694" y="1350" on="1"/>
        <pt x="1694" y="1202" on="1"/>
        <pt x="1618" y="1202" on="1"/>
        <pt x="1618" y="147" on="1"/>
        <pt x="1704" y="147" on="1"/>
        <pt x="1704" y="0" on="1"/>
        <pt x="145" y="0" on="1"/>
        <pt x="145" y="147" on="1"/>
        <pt x="238" y="166" on="0"/>
        <pt x="344" y="286" on="0"/>
        <pt x="344" y="365" on="1"/>
        <pt x="344" y="442" on="0"/>
        <pt x="259" y="535" on="0"/>
        <pt x="178" y="535" on="1"/>
        <pt x="123" y="535" on="0"/>
        <pt x="66" y="512" on="1"/>
      </contour>
      <contour>
        <pt x="1196" y="147" on="1"/>
        <pt x="1452" y="147" on="1"/>
        <pt x="1452" y="1202" on="1"/>
        <pt x="1196" y="1202" on="1"/>
      </contour>
      <contour>
        <pt x="778" y="147" on="1"/>
        <pt x="1032" y="147" on="1"/>
        <pt x="1032" y="1202" on="1"/>
        <pt x="778" y="1202" on="1"/>
      </contour>
    </TTGlyph>
    <TTGlyph name="uniABCA" xMin="86" yMin="-6" xMax="1292" yMax="1350">
      <contour>
        <pt x="788" y="330" on="1"/>
        <pt x="788" y="241" on="0"/>
        <pt x="886" y="141" on="0"/>
        <pt x="967" y="141" on="1"/>
        <pt x="1045" y="141" on="0"/>
        <pt x="1126" y="232" on="0"/>
        <pt x="1126" y="301" on="1"/>
        <pt x="1126" y="351" on="0"/>
        <pt x="1060" y="423" on="0"/>
        <pt x="1004" y="434" on="1"/>
        <pt x="1034" y="588" on="1"/>
        <pt x="1153" y="562" on="0"/>
        <pt x="1288" y="409" on="0"/>
        <pt x="1288" y="301" on="1"/>
        <pt x="1288" y="158" on="0"/>
        <pt x="1118" y="-6" on="0"/>
        <pt x="969" y="-6" on="1"/>
        <pt x="789" y="-6" on="0"/>
        <pt x="709" y="137" on="1"/>
        <pt x="659" y="68" on="0"/>
        <pt x="518" y="-6" on="0"/>
        <pt x="444" y="-6" on="1"/>
        <pt x="294" y="-6" on="0"/>
        <pt x="127" y="158" on="0"/>
        <pt x="127" y="301" on="1"/>
        <pt x="127" y="410" on="0"/>
        <pt x="260" y="562" on="0"/>
        <pt x="377" y="588" on="1"/>
        <pt x="406" y="434" on="1"/>
        <pt x="351" y="423" on="0"/>
        <pt x="289" y="351" on="0"/>
        <pt x="289" y="301" on="1"/>
        <pt x="289" y="230" on="0"/>
        <pt x="368" y="141" on="0"/>
        <pt x="451" y="141" on="1"/>
        <pt x="528" y="141" on="0"/>
        <pt x="625" y="242" on="0"/>
        <pt x="625" y="330" on="1"/>
        <pt x="625" y="1198" on="1"/>
        <pt x="86" y="1198" on="1"/>
        <pt x="86" y="1350" on="1"/>
        <pt x="1292" y="1350" on="1"/>
        <pt x="1292" y="1198" on="1"/>
        <pt x="788" y="1198" on="1"/>
      </contour>
    </TTGlyph>
    <TTGlyph name="uniABCB" xMin="45" yMin="0" xMax="1663" yMax="1350">
      <contour>
        <pt x="295" y="1200" on="1"/>
        <pt x="563" y="887" on="0"/>
        <pt x="563" y="563" on="1"/>
        <pt x="563" y="413" on="0"/>
        <pt x="453" y="180" on="0"/>
        <pt x="232" y="24" on="0"/>
        <pt x="90" y="0" on="1"/>
        <pt x="45" y="164" on="1"/>
        <pt x="215" y="200" on="0"/>
        <pt x="395" y="412" on="0"/>
        <pt x="395" y="575" on="1"/>
        <pt x="395" y="720" on="0"/>
        <pt x="227" y="1060" on="0"/>
        <pt x="76" y="1204" on="1"/>
        <pt x="76" y="1350" on="1"/>
        <pt x="1642" y="1350" on="1"/>
        <pt x="1642" y="1204" on="1"/>
        <pt x="1477" y="1042" on="0"/>
        <pt x="1311" y="708" on="0"/>
        <pt x="1311" y="555" on="1"/>
        <pt x="1311" y="409" on="0"/>
        <pt x="1494" y="194" on="0"/>
        <pt x="1663" y="150" on="1"/>
        <pt x="1616" y="0" on="1"/>
        <pt x="1492" y="30" on="0"/>
        <pt x="1233" y="204" on="0"/>
        <pt x="975" y="490" on="0"/>
        <pt x="795" y="752" on="1"/>
        <pt x="932" y="848" on="1"/>
        <pt x="1057" y="650" on="0"/>
        <pt x="1153" y="532" on="1"/>
        <pt x="1151" y="555" on="1"/>
        <pt x="1151" y="575" on="1"/>
        <pt x="1151" y="892" on="0"/>
        <pt x="1432" y="1200" on="1"/>
      </contour>
    </TTGlyph>
    <TTGlyph name="uniABCC" xMin="76" yMin="-10" xMax="1544" yMax="1350">
      <contour>
        <pt x="930" y="637" on="1"/>
        <pt x="1020" y="637" on="1"/>
        <pt x="1162" y="637" on="0"/>
        <pt x="1313" y="783" on="0"/>
        <pt x="1313" y="913" on="1"/>
        <pt x="1313" y="1044" on="0"/>
        <pt x="1137" y="1200" on="0"/>
        <pt x="989" y="1200" on="1"/>
        <pt x="612" y="1200" on="1"/>
        <pt x="469" y="1200" on="0"/>
        <pt x="299" y="1051" on="0"/>
        <pt x="299" y="920" on="1"/>
        <pt x="299" y="776" on="0"/>
        <pt x="447" y="637" on="0"/>
        <pt x="584" y="637" on="1"/>
        <pt x="678" y="637" on="1"/>
        <pt x="678" y="467" on="1"/>
        <pt x="238" y="-10" on="1"/>
        <pt x="113" y="106" on="1"/>
        <pt x="514" y="508" on="1"/>
        <pt x="411" y="510" on="0"/>
        <pt x="233" y="610" on="0"/>
        <pt x="131" y="790" on="0"/>
        <pt x="131" y="911" on="1"/>
        <pt x="131" y="1090" on="0"/>
        <pt x="264" y="1200" on="1"/>
        <pt x="76" y="1200" on="1"/>
        <pt x="76" y="1350" on="1"/>
        <pt x="1544" y="1350" on="1"/>
        <pt x="1544" y="1200" on="1"/>
        <pt x="1339" y="1200" on="1"/>
        <pt x="1479" y="1083" on="0"/>
        <pt x="1479" y="899" on="1"/>
        <pt x="1479" y="789" on="0"/>
        <pt x="1378" y="614" on="0"/>
        <pt x="1194" y="511" on="0"/>
        <pt x="1096" y="508" on="1"/>
        <pt x="1087" y="506" on="1"/>
        <pt x="1206" y="359" on="0"/>
        <pt x="1286" y="254" on="1"/>
        <pt x="1323" y="204" on="0"/>
        <pt x="1393" y="143" on="0"/>
        <pt x="1438" y="143" on="1"/>
        <pt x="1464" y="143" on="0"/>
        <pt x="1509" y="160" on="1"/>
        <pt x="1540" y="8" on="1"/>
        <pt x="1492" y="-10" on="0"/>
        <pt x="1423" y="-10" on="1"/>
        <pt x="1290" y="-10" on="0"/>
        <pt x="1174" y="147" on="1"/>
        <pt x="930" y="475" on="1"/>
      </contour>
    </TTGlyph>
    <TTGlyph name="uniABCD" xMin="55" yMin="-1" xMax="1368" yMax="1350">
      <contour>
        <pt x="55" y="1350" on="1"/>
        <pt x="1368" y="1350" on="1"/>
        <pt x="1368" y="1200" on="1"/>
        <pt x="55" y="1200" on="1"/>
      </contour>
      <contour>
        <pt x="893" y="614" on="1"/>
        <pt x="905" y="605" on="0"/>
        <pt x="978" y="584" on="0"/>
        <pt x="999" y="584" on="1"/>
        <pt x="1078" y="584" on="0"/>
        <pt x="1163" y="674" on="0"/>
        <pt x="1163" y="756" on="1"/>
        <pt x="1163" y="836" on="0"/>
        <pt x="1081" y="930" on="0"/>
        <pt x="1008" y="930" on="1"/>
        <pt x="928" y="930" on="0"/>
        <pt x="810" y="835" on="0"/>
        <pt x="711" y="628" on="0"/>
        <pt x="676" y="483" on="1"/>
        <pt x="635" y="318" on="0"/>
        <pt x="503" y="111" on="0"/>
        <pt x="315" y="-1" on="0"/>
        <pt x="174" y="-1" on="1"/>
        <pt x="133" y="-1" on="0"/>
        <pt x="90" y="4" on="1"/>
        <pt x="106" y="150" on="1"/>
        <pt x="151" y="149" on="1"/>
        <pt x="275" y="149" on="0"/>
        <pt x="409" y="235" on="0"/>
        <pt x="502" y="410" on="0"/>
        <pt x="541" y="565" on="1"/>
        <pt x="605" y="814" on="0"/>
        <pt x="840" y="1073" on="0"/>
        <pt x="1006" y="1073" on="1"/>
        <pt x="1094" y="1073" on="0"/>
        <pt x="1238" y="999" on="0"/>
        <pt x="1321" y="860" on="0"/>
        <pt x="1321" y="760" on="1"/>
        <pt x="1321" y="659" on="0"/>
        <pt x="1242" y="517" on="0"/>
        <pt x="1101" y="442" on="0"/>
        <pt x="1014" y="442" on="1"/>
        <pt x="963" y="442" on="0"/>
        <pt x="856" y="472" on="0"/>
        <pt x="827" y="492" on="1"/>
      </contour>
    </TTGlyph>
    <TTGlyph name="uniABCE" xMin="66" yMin="0" xMax="1473" yMax="1350">
      <contour>
        <pt x="66" y="1350" on="1"/>
        <pt x="1473" y="1350" on="1"/>
        <pt x="1473" y="1200" on="1"/>
        <pt x="289" y="1200" on="1"/>
        <pt x="285" y="1160" on="0"/>
        <pt x="285" y="1094" on="1"/>
        <pt x="287" y="849" on="0"/>
        <pt x="567" y="588" on="0"/>
        <pt x="821" y="588" on="1"/>
        <pt x="957" y="588" on="0"/>
        <pt x="1042" y="621" on="1"/>
        <pt x="993" y="675" on="0"/>
        <pt x="938" y="791" on="0"/>
        <pt x="938" y="838" on="1"/>
        <pt x="938" y="956" on="0"/>
        <pt x="1089" y="1094" on="0"/>
        <pt x="1204" y="1094" on="1"/>
        <pt x="1319" y="1094" on="0"/>
        <pt x="1466" y="948" on="0"/>
        <pt x="1466" y="836" on="1"/>
        <pt x="1466" y="750" on="0"/>
        <pt x="1374" y="618" on="0"/>
        <pt x="1274" y="553" on="1"/>
        <pt x="1370" y="444" on="0"/>
        <pt x="1438" y="311" on="0"/>
        <pt x="1438" y="211" on="1"/>
        <pt x="1438" y="113" on="0"/>
        <pt x="1354" y="0" on="1"/>
        <pt x="1176" y="0" on="1"/>
        <pt x="1167" y="197" on="0"/>
        <pt x="1040" y="197" on="1"/>
        <pt x="968" y="197" on="0"/>
        <pt x="896" y="107" on="0"/>
        <pt x="893" y="0" on="1"/>
        <pt x="725" y="0" on="1"/>
        <pt x="720" y="97" on="0"/>
        <pt x="631" y="203" on="0"/>
        <pt x="553" y="203" on="1"/>
        <pt x="468" y="203" on="0"/>
        <pt x="368" y="101" on="0"/>
        <pt x="365" y="0" on="1"/>
        <pt x="197" y="0" on="1"/>
        <pt x="202" y="101" on="0"/>
        <pt x="289" y="266" on="0"/>
        <pt x="438" y="348" on="0"/>
        <pt x="539" y="348" on="1"/>
        <pt x="640" y="348" on="0"/>
        <pt x="781" y="261" on="0"/>
        <pt x="809" y="178" on="1"/>
        <pt x="829" y="254" on="0"/>
        <pt x="953" y="342" on="0"/>
        <pt x="1040" y="342" on="1"/>
        <pt x="1127" y="342" on="0"/>
        <pt x="1250" y="242" on="0"/>
        <pt x="1274" y="156" on="1"/>
        <pt x="1290" y="196" on="0"/>
        <pt x="1290" y="236" on="1"/>
        <pt x="1290" y="330" on="0"/>
        <pt x="1130" y="487" on="1"/>
        <pt x="991" y="440" on="0"/>
        <pt x="823" y="440" on="1"/>
        <pt x="500" y="440" on="0"/>
        <pt x="119" y="784" on="0"/>
        <pt x="117" y="1085" on="1"/>
        <pt x="117" y="1150" on="0"/>
        <pt x="123" y="1200" on="1"/>
        <pt x="66" y="1200" on="1"/>
      </contour>
      <contour>
        <pt x="1098" y="840" on="1"/>
        <pt x="1098" y="753" on="0"/>
        <pt x="1176" y="672" on="1"/>
        <pt x="1303" y="737" on="0"/>
        <pt x="1303" y="836" on="1"/>
        <pt x="1303" y="946" on="0"/>
        <pt x="1204" y="946" on="1"/>
        <pt x="1158" y="946" on="0"/>
        <pt x="1098" y="889" on="0"/>
      </contour>
    </TTGlyph>
    <TTGlyph name="uniABCF" xMin="45" yMin="-10" xMax="1479" yMax="1350">
      <contour>
        <pt x="76" y="1350" on="1"/>
        <pt x="1468" y="1350" on="1"/>
        <pt x="1468" y="1200" on="1"/>
        <pt x="287" y="1200" on="1"/>
        <pt x="395" y="1061" on="0"/>
        <pt x="606" y="935" on="0"/>
        <pt x="762" y="891" on="1"/>
        <pt x="895" y="852" on="1"/>
        <pt x="1129" y="784" on="0"/>
        <pt x="1367" y="651" on="0"/>
        <pt x="1479" y="481" on="0"/>
        <pt x="1479" y="375" on="1"/>
        <pt x="1479" y="195" on="0"/>
        <pt x="1281" y="-10" on="0"/>
        <pt x="1114" y="-10" on="1"/>
        <pt x="1044" y="-10" on="0"/>
        <pt x="902" y="37" on="0"/>
        <pt x="852" y="78" on="1"/>
        <pt x="946" y="205" on="1"/>
        <pt x="1029" y="143" on="0"/>
        <pt x="1114" y="143" on="1"/>
        <pt x="1206" y="143" on="0"/>
        <pt x="1311" y="272" on="0"/>
        <pt x="1311" y="379" on="1"/>
        <pt x="1311" y="453" on="0"/>
        <pt x="1230" y="557" on="0"/>
        <pt x="1074" y="636" on="0"/>
        <pt x="887" y="688" on="1"/>
        <pt x="797" y="714" on="0"/>
        <pt x="609" y="776" on="0"/>
        <pt x="518" y="825" on="1"/>
        <pt x="596" y="669" on="0"/>
        <pt x="596" y="524" on="1"/>
        <pt x="596" y="317" on="0"/>
        <pt x="325" y="36" on="0"/>
        <pt x="92" y="0" on="1"/>
        <pt x="45" y="160" on="1"/>
        <pt x="232" y="186" on="0"/>
        <pt x="430" y="380" on="0"/>
        <pt x="430" y="539" on="1"/>
        <pt x="430" y="688" on="0"/>
        <pt x="238" y="1058" on="0"/>
        <pt x="80" y="1200" on="1"/>
        <pt x="76" y="1200" on="1"/>
      </contour>
    </TTGlyph>
    <TTGlyph name="uniABD0" xMin="53" yMin="-27" xMax="1487" yMax="1350">
      <contour>
        <pt x="53" y="1350" on="1"/>
        <pt x="1425" y="1350" on="1"/>
        <pt x="1425" y="1200" on="1"/>
        <pt x="252" y="1200" on="1"/>
        <pt x="388" y="973" on="0"/>
        <pt x="434" y="778" on="1"/>
        <pt x="534" y="815" on="0"/>
        <pt x="621" y="815" on="1"/>
        <pt x="695" y="815" on="0"/>
        <pt x="836" y="784" on="1"/>
        <pt x="885" y="773" on="0"/>
        <pt x="981" y="754" on="0"/>
        <pt x="1032" y="754" on="1"/>
        <pt x="1097" y="754" on="0"/>
        <pt x="1237" y="797" on="0"/>
        <pt x="1292" y="844" on="1"/>
        <pt x="1368" y="711" on="1"/>
        <pt x="1294" y="648" on="0"/>
        <pt x="1123" y="606" on="0"/>
        <pt x="1032" y="606" on="1"/>
        <pt x="973" y="606" on="0"/>
        <pt x="858" y="633" on="1"/>
        <pt x="805" y="644" on="0"/>
        <pt x="690" y="664" on="0"/>
        <pt x="621" y="664" on="1"/>
        <pt x="548" y="664" on="0"/>
        <pt x="455" y="629" on="1"/>
        <pt x="457" y="613" on="1"/>
        <pt x="457" y="596" on="1"/>
        <pt x="457" y="392" on="0"/>
        <pt x="365" y="188" on="1"/>
        <pt x="488" y="221" on="0"/>
        <pt x="582" y="221" on="1"/>
        <pt x="697" y="221" on="0"/>
        <pt x="844" y="186" on="1"/>
        <pt x="1000" y="147" on="0"/>
        <pt x="1112" y="147" on="1"/>
        <pt x="1196" y="147" on="0"/>
        <pt x="1318" y="198" on="0"/>
        <pt x="1366" y="260" on="1"/>
        <pt x="1487" y="158" on="1"/>
        <pt x="1350" y="-4" on="0"/>
        <pt x="1112" y="-4" on="1"/>
        <pt x="1008" y="-4" on="0"/>
        <pt x="860" y="31" on="1"/>
        <pt x="696" y="70" on="0"/>
        <pt x="586" y="70" on="1"/>
        <pt x="477" y="70" on="0"/>
        <pt x="295" y="18" on="0"/>
        <pt x="238" y="-27" on="1"/>
        <pt x="163" y="7" on="0"/>
        <pt x="96" y="47" on="1"/>
        <pt x="281" y="336" on="0"/>
        <pt x="281" y="594" on="1"/>
        <pt x="281" y="706" on="0"/>
        <pt x="219" y="926" on="0"/>
        <pt x="114" y="1128" on="0"/>
        <pt x="53" y="1200" on="1"/>
      </contour>
    </TTGlyph>
    <TTGlyph name="uniABD1" xMin="76" yMin="-8" xMax="1534" yMax="1350">
      <contour>
        <pt x="1534" y="178" on="1"/>
        <pt x="1262" y="-8" on="0"/>
        <pt x="907" y="-8" on="1"/>
        <pt x="669" y="-8" on="0"/>
        <pt x="290" y="188" on="0"/>
        <pt x="102" y="534" on="0"/>
        <pt x="102" y="772" on="1"/>
        <pt x="102" y="998" on="0"/>
        <pt x="160" y="1200" on="1"/>
        <pt x="76" y="1200" on="1"/>
        <pt x="76" y="1350" on="1"/>
        <pt x="1513" y="1350" on="1"/>
        <pt x="1513" y="1200" on="1"/>
        <pt x="1182" y="1200" on="1"/>
        <pt x="1182" y="180" on="1"/>
        <pt x="1317" y="223" on="0"/>
        <pt x="1436" y="309" on="1"/>
      </contour>
      <contour>
        <pt x="274" y="772" on="1"/>
        <pt x="274" y="565" on="0"/>
        <pt x="440" y="275" on="0"/>
        <pt x="604" y="202" on="1"/>
        <pt x="604" y="1200" on="1"/>
        <pt x="347" y="1200" on="1"/>
        <pt x="315" y="1112" on="0"/>
        <pt x="274" y="889" on="0"/>
      </contour>
      <contour>
        <pt x="905" y="143" on="1"/>
        <pt x="969" y="143" on="0"/>
        <pt x="1014" y="148" on="1"/>
        <pt x="1014" y="1200" on="1"/>
        <pt x="772" y="1200" on="1"/>
        <pt x="772" y="153" on="1"/>
        <pt x="840" y="143" on="0"/>
      </contour>
    </TTGlyph>
    <TTGlyph name="uniABD2" xMin="82" yMin="0" xMax="1550" yMax="1350">
      <contour>
        <pt x="1550" y="809" on="1"/>
        <pt x="1531" y="669" on="0"/>
        <pt x="1386" y="522" on="0"/>
        <pt x="1272" y="522" on="1"/>
        <pt x="1004" y="522" on="0"/>
        <pt x="1004" y="805" on="1"/>
        <pt x="1004" y="1200" on="1"/>
        <pt x="784" y="1200" on="1"/>
        <pt x="784" y="0" on="1"/>
        <pt x="614" y="0" on="1"/>
        <pt x="614" y="1200" on="1"/>
        <pt x="375" y="1200" on="1"/>
        <pt x="375" y="0" on="1"/>
        <pt x="209" y="0" on="1"/>
        <pt x="209" y="1200" on="1"/>
        <pt x="82" y="1200" on="1"/>
        <pt x="82" y="1350" on="1"/>
        <pt x="1491" y="1350" on="1"/>
        <pt x="1491" y="1202" on="1"/>
        <pt x="1163" y="1202" on="1"/>
        <pt x="1163" y="795" on="1"/>
        <pt x="1163" y="728" on="0"/>
        <pt x="1218" y="668" on="0"/>
        <pt x="1274" y="668" on="1"/>
        <pt x="1330" y="668" on="0"/>
        <pt x="1385" y="761" on="0"/>
        <pt x="1395" y="850" on="1"/>
      </contour>
    </TTGlyph>
    <TTGlyph name="uniABD3" xMin="76" yMin="-14" xMax="1323" yMax="1350">
      <contour>
        <pt x="76" y="1350" on="1"/>
        <pt x="1323" y="1350" on="1"/>
        <pt x="1323" y="1200" on="1"/>
        <pt x="1194" y="1200" on="1"/>
        <pt x="350" y="690" on="1"/>
        <pt x="352" y="680" on="1"/>
        <pt x="1096" y="793" on="1"/>
        <pt x="1145" y="631" on="1"/>
        <pt x="958" y="604" on="1"/>
        <pt x="849" y="589" on="0"/>
        <pt x="715" y="456" on="0"/>
        <pt x="715" y="356" on="1"/>
        <pt x="715" y="255" on="0"/>
        <pt x="834" y="137" on="0"/>
        <pt x="932" y="137" on="1"/>
        <pt x="1031" y="137" on="0"/>
        <pt x="1145" y="207" on="1"/>
        <pt x="1182" y="143" on="1"/>
        <pt x="1221" y="78" on="1"/>
        <pt x="1143" y="21" on="0"/>
        <pt x="989" y="-14" on="0"/>
        <pt x="918" y="-14" on="1"/>
        <pt x="812" y="-14" on="0"/>
        <pt x="644" y="69" on="0"/>
        <pt x="547" y="225" on="0"/>
        <pt x="547" y="340" on="1"/>
        <pt x="547" y="411" on="0"/>
        <pt x="600" y="531" on="0"/>
        <pt x="651" y="571" on="1"/>
        <pt x="283" y="514" on="1"/>
        <pt x="166" y="760" on="1"/>
        <pt x="901" y="1200" on="1"/>
        <pt x="76" y="1200" on="1"/>
      </contour>
    </TTGlyph>
    <TTGlyph name="uniABD4" xMin="76" yMin="0" xMax="1528" yMax="1395">
      <contour>
        <pt x="1362" y="920" on="1"/>
        <pt x="1360" y="1078" on="0"/>
        <pt x="1291" y="1239" on="0"/>
        <pt x="1206" y="1239" on="1"/>
        <pt x="1115" y="1239" on="0"/>
        <pt x="1040" y="1120" on="0"/>
        <pt x="1040" y="967" on="1"/>
        <pt x="1040" y="0" on="1"/>
        <pt x="76" y="0" on="1"/>
        <pt x="76" y="856" on="1"/>
        <pt x="76" y="1101" on="0"/>
        <pt x="322" y="1376" on="0"/>
        <pt x="555" y="1376" on="1"/>
        <pt x="690" y="1376" on="0"/>
        <pt x="867" y="1286" on="0"/>
        <pt x="930" y="1188" on="1"/>
        <pt x="957" y="1288" on="0"/>
        <pt x="1102" y="1395" on="0"/>
        <pt x="1212" y="1395" on="1"/>
        <pt x="1362" y="1395" on="0"/>
        <pt x="1523" y="1166" on="0"/>
        <pt x="1528" y="942" on="1"/>
      </contour>
      <contour>
        <pt x="872" y="901" on="1"/>
        <pt x="872" y="1052" on="0"/>
        <pt x="706" y="1221" on="0"/>
        <pt x="557" y="1221" on="1"/>
        <pt x="409" y="1221" on="0"/>
        <pt x="246" y="1046" on="0"/>
        <pt x="246" y="883" on="1"/>
        <pt x="246" y="723" on="1"/>
        <pt x="872" y="723" on="1"/>
      </contour>
      <contour>
        <pt x="246" y="145" on="1"/>
        <pt x="872" y="145" on="1"/>
        <pt x="872" y="578" on="1"/>
        <pt x="246" y="578" on="1"/>
      </contour>
    </TTGlyph>
    <TTGlyph name="uniABD5" xMin="70" yMin="-18" xMax="1372" yMax="1350">
      <contour>
        <pt x="70" y="1350" on="1"/>
        <pt x="1372" y="1350" on="1"/>
        <pt x="1372" y="1200" on="1"/>
        <pt x="1277" y="1153" on="0"/>
        <pt x="954" y="940" on="0"/>
        <pt x="827" y="829" on="1"/>
        <pt x="957" y="708" on="0"/>
        <pt x="1069" y="567" on="0"/>
        <pt x="1128" y="432" on="0"/>
        <pt x="1128" y="360" on="1"/>
        <pt x="1128" y="249" on="0"/>
        <pt x="1034" y="81" on="0"/>
        <pt x="842" y="-18" on="0"/>
        <pt x="723" y="-18" on="1"/>
        <pt x="606" y="-18" on="0"/>
        <pt x="421" y="71" on="0"/>
        <pt x="315" y="240" on="0"/>
        <pt x="315" y="360" on="1"/>
        <pt x="315" y="458" on="0"/>
        <pt x="441" y="667" on="0"/>
        <pt x="614" y="831" on="1"/>
        <pt x="542" y="895" on="0"/>
        <pt x="343" y="1039" on="0"/>
        <pt x="112" y="1180" on="0"/>
        <pt x="70" y="1200" on="1"/>
      </contour>
      <contour>
        <pt x="494" y="367" on="1"/>
        <pt x="494" y="259" on="0"/>
        <pt x="622" y="127" on="0"/>
        <pt x="723" y="127" on="1"/>
        <pt x="822" y="127" on="0"/>
        <pt x="950" y="261" on="0"/>
        <pt x="950" y="367" on="1"/>
        <pt x="950" y="447" on="0"/>
        <pt x="832" y="628" on="0"/>
        <pt x="723" y="715" on="1"/>
        <pt x="494" y="552" on="0"/>
      </contour>
      <contour>
        <pt x="336" y="1200" on="1"/>
        <pt x="550" y="1072" on="0"/>
        <pt x="723" y="928" on="1"/>
        <pt x="879" y="1066" on="0"/>
        <pt x="1106" y="1200" on="1"/>
      </contour>
    </TTGlyph>
    <TTGlyph name="uniABD6" xMin="68" yMin="-18" xMax="1288" yMax="1350">
      <contour>
        <pt x="1288" y="1202" on="1"/>
        <pt x="1043" y="1076" on="0"/>
        <pt x="825" y="945" on="0"/>
        <pt x="646" y="811" on="0"/>
        <pt x="518" y="671" on="0"/>
        <pt x="444" y="521" on="0"/>
        <pt x="444" y="438" on="1"/>
        <pt x="444" y="294" on="0"/>
        <pt x="598" y="139" on="0"/>
        <pt x="750" y="139" on="1"/>
        <pt x="910" y="139" on="0"/>
        <pt x="1061" y="285" on="1"/>
        <pt x="1075" y="269" on="0"/>
        <pt x="1159" y="185" on="0"/>
        <pt x="1178" y="168" on="1"/>
        <pt x="1099" y="95" on="0"/>
        <pt x="976" y="25" on="0"/>
        <pt x="827" y="-18" on="0"/>
        <pt x="737" y="-18" on="1"/>
        <pt x="600" y="-18" on="0"/>
        <pt x="375" y="93" on="0"/>
        <pt x="266" y="289" on="0"/>
        <pt x="266" y="422" on="1"/>
        <pt x="266" y="629" on="0"/>
        <pt x="598" y="1006" on="0"/>
        <pt x="963" y="1200" on="1"/>
        <pt x="68" y="1200" on="1"/>
        <pt x="68" y="1350" on="1"/>
        <pt x="1288" y="1350" on="1"/>
      </contour>
    </TTGlyph>
    <TTGlyph name="uniABD7" xMin="76" yMin="-6" xMax="1516" yMax="1350">
      <contour>
        <pt x="1356" y="907" on="1"/>
        <pt x="1281" y="805" on="0"/>
        <pt x="1196" y="559" on="0"/>
        <pt x="1196" y="444" on="1"/>
        <pt x="1196" y="308" on="0"/>
        <pt x="1322" y="164" on="0"/>
        <pt x="1440" y="164" on="1"/>
        <pt x="1495" y="168" on="1"/>
        <pt x="1516" y="14" on="1"/>
        <pt x="1493" y="10" on="0"/>
        <pt x="1440" y="10" on="1"/>
        <pt x="1318" y="10" on="0"/>
        <pt x="1132" y="112" on="0"/>
        <pt x="1028" y="304" on="0"/>
        <pt x="1028" y="438" on="1"/>
        <pt x="1028" y="668" on="0"/>
        <pt x="1182" y="920" on="1"/>
        <pt x="904" y="863" on="0"/>
        <pt x="702" y="780" on="1"/>
        <pt x="783" y="671" on="0"/>
        <pt x="862" y="479" on="0"/>
        <pt x="862" y="383" on="1"/>
        <pt x="862" y="259" on="0"/>
        <pt x="763" y="85" on="0"/>
        <pt x="590" y="-6" on="0"/>
        <pt x="477" y="-6" on="1"/>
        <pt x="383" y="-6" on="0"/>
        <pt x="216" y="86" on="0"/>
        <pt x="119" y="251" on="0"/>
        <pt x="119" y="358" on="1"/>
        <pt x="119" y="638" on="0"/>
        <pt x="457" y="831" on="1"/>
        <pt x="319" y="980" on="0"/>
        <pt x="168" y="1124" on="0"/>
        <pt x="76" y="1200" on="1"/>
        <pt x="76" y="1350" on="1"/>
        <pt x="1468" y="1350" on="1"/>
        <pt x="1468" y="1200" on="1"/>
        <pt x="305" y="1200" on="1"/>
        <pt x="496" y="1018" on="0"/>
        <pt x="600" y="901" on="1"/>
        <pt x="820" y="993" on="0"/>
        <pt x="1188" y="1071" on="1"/>
      </contour>
      <contour>
        <pt x="696" y="385" on="1"/>
        <pt x="696" y="527" on="0"/>
        <pt x="555" y="709" on="1"/>
        <pt x="287" y="555" on="0"/>
        <pt x="287" y="354" on="1"/>
        <pt x="287" y="259" on="0"/>
        <pt x="399" y="152" on="0"/>
        <pt x="485" y="152" on="1"/>
        <pt x="586" y="152" on="0"/>
        <pt x="696" y="275" on="0"/>
      </contour>
    </TTGlyph>
    <TTGlyph name="uniABD8" xMin="39" yMin="10" xMax="1497" yMax="1350">
      <contour>
        <pt x="1497" y="43" on="1"/>
        <pt x="1407" y="10" on="0"/>
        <pt x="1327" y="10" on="1"/>
        <pt x="1179" y="12" on="0"/>
        <pt x="1008" y="180" on="0"/>
        <pt x="1008" y="322" on="1"/>
        <pt x="1008" y="382" on="0"/>
        <pt x="1058" y="495" on="0"/>
        <pt x="1108" y="537" on="1"/>
        <pt x="754" y="537" on="1"/>
        <pt x="754" y="403" on="1"/>
        <pt x="754" y="219" on="0"/>
        <pt x="568" y="16" on="0"/>
        <pt x="397" y="16" on="1"/>
        <pt x="297" y="16" on="0"/>
        <pt x="140" y="111" on="0"/>
        <pt x="53" y="271" on="0"/>
        <pt x="53" y="358" on="1"/>
        <pt x="53" y="517" on="0"/>
        <pt x="269" y="686" on="0"/>
        <pt x="467" y="686" on="1"/>
        <pt x="584" y="686" on="1"/>
        <pt x="584" y="1200" on="1"/>
        <pt x="39" y="1200" on="1"/>
        <pt x="39" y="1350" on="1"/>
        <pt x="1456" y="1350" on="1"/>
        <pt x="1456" y="1200" on="1"/>
        <pt x="754" y="1200" on="1"/>
        <pt x="754" y="686" on="1"/>
        <pt x="1417" y="686" on="1"/>
        <pt x="1417" y="537" on="1"/>
        <pt x="1302" y="534" on="0"/>
        <pt x="1169" y="428" on="0"/>
        <pt x="1169" y="334" on="1"/>
        <pt x="1169" y="255" on="0"/>
        <pt x="1266" y="164" on="0"/>
        <pt x="1343" y="164" on="1"/>
        <pt x="1394" y="164" on="0"/>
        <pt x="1438" y="184" on="1"/>
      </contour>
      <contour>
        <pt x="584" y="537" on="1"/>
        <pt x="453" y="537" on="1"/>
        <pt x="345" y="537" on="0"/>
        <pt x="221" y="441" on="0"/>
        <pt x="221" y="356" on="1"/>
        <pt x="221" y="274" on="0"/>
        <pt x="318" y="170" on="0"/>
        <pt x="393" y="170" on="1"/>
        <pt x="486" y="170" on="0"/>
        <pt x="584" y="299" on="0"/>
        <pt x="584" y="422" on="1"/>
      </contour>
    </TTGlyph>
    <TTGlyph name="uniABD9" xMin="84" yMin="-6" xMax="1145" yMax="1350">
      <contour>
        <pt x="664" y="0" on="1"/>
        <pt x="664" y="106" on="1"/>
        <pt x="563" y="-6" on="0"/>
        <pt x="414" y="-6" on="1"/>
        <pt x="278" y="-6" on="0"/>
        <pt x="92" y="184" on="0"/>
        <pt x="92" y="319" on="1"/>
        <pt x="92" y="433" on="0"/>
        <pt x="194" y="591" on="0"/>
        <pt x="305" y="641" on="1"/>
        <pt x="383" y="500" on="1"/>
        <pt x="258" y="429" on="0"/>
        <pt x="258" y="322" on="1"/>
        <pt x="258" y="245" on="0"/>
        <pt x="358" y="147" on="0"/>
        <pt x="440" y="147" on="1"/>
        <pt x="514" y="147" on="0"/>
        <pt x="637" y="253" on="0"/>
        <pt x="664" y="338" on="1"/>
        <pt x="664" y="1198" on="1"/>
        <pt x="84" y="1198" on="1"/>
        <pt x="84" y="1350" on="1"/>
        <pt x="1145" y="1350" on="1"/>
        <pt x="1145" y="1198" on="1"/>
        <pt x="829" y="1198" on="1"/>
        <pt x="829" y="0" on="1"/>
      </contour>
    </TTGlyph>
    <TTGlyph name="uniABDA" xMin="47" yMin="0" xMax="1155" yMax="1350">
      <contour>
        <pt x="930" y="0" on="1"/>
        <pt x="930" y="1200" on="1"/>
        <pt x="614" y="1200" on="1"/>
        <pt x="614" y="700" on="1"/>
        <pt x="614" y="568" on="0"/>
        <pt x="475" y="420" on="0"/>
        <pt x="354" y="420" on="1"/>
        <pt x="111" y="420" on="0"/>
        <pt x="47" y="690" on="1"/>
        <pt x="201" y="741" on="1"/>
        <pt x="224" y="652" on="0"/>
        <pt x="288" y="575" on="0"/>
        <pt x="348" y="575" on="1"/>
        <pt x="401" y="575" on="0"/>
        <pt x="451" y="646" on="0"/>
        <pt x="451" y="698" on="1"/>
        <pt x="451" y="1200" on="1"/>
        <pt x="90" y="1200" on="1"/>
        <pt x="90" y="1350" on="1"/>
        <pt x="1155" y="1350" on="1"/>
        <pt x="1155" y="1200" on="1"/>
        <pt x="1096" y="1200" on="1"/>
        <pt x="1096" y="0" on="1"/>
      </contour>
    </TTGlyph>
    <TTGlyph name="uniABDB" xMin="86" yMin="0" xMax="1661" yMax="1350">
      <contour>
        <pt x="1171" y="0" on="1"/>
        <pt x="156" y="0" on="1"/>
        <pt x="156" y="1198" on="1"/>
        <pt x="86" y="1198" on="1"/>
        <pt x="86" y="1350" on="1"/>
        <pt x="1661" y="1350" on="1"/>
        <pt x="1661" y="1198" on="1"/>
        <pt x="1591" y="1198" on="1"/>
        <pt x="1591" y="735" on="1"/>
        <pt x="1425" y="735" on="1"/>
        <pt x="1425" y="1198" on="1"/>
        <pt x="1171" y="1198" on="1"/>
      </contour>
      <contour>
        <pt x="324" y="143" on="1"/>
        <pt x="584" y="143" on="1"/>
        <pt x="584" y="1198" on="1"/>
        <pt x="324" y="1198" on="1"/>
      </contour>
      <contour>
        <pt x="754" y="143" on="1"/>
        <pt x="1006" y="143" on="1"/>
        <pt x="1006" y="1198" on="1"/>
        <pt x="754" y="1198" on="1"/>
      </contour>
    </TTGlyph>
    <TTGlyph name="uniABDC" xMin="78" yMin="0" xMax="1026" yMax="1350">
      <contour>
        <pt x="793" y="0" on="1"/>
        <pt x="793" y="80" on="1"/>
        <pt x="793" y="405" on="0"/>
        <pt x="502" y="741" on="0"/>
        <pt x="217" y="741" on="1"/>
        <pt x="145" y="741" on="1"/>
        <pt x="145" y="891" on="1"/>
        <pt x="217" y="891" on="1"/>
        <pt x="448" y="891" on="0"/>
        <pt x="710" y="756" on="0"/>
        <pt x="784" y="618" on="1"/>
        <pt x="793" y="618" on="1"/>
        <pt x="793" y="1200" on="1"/>
        <pt x="78" y="1200" on="1"/>
        <pt x="78" y="1350" on="1"/>
        <pt x="1026" y="1350" on="1"/>
        <pt x="1026" y="1200" on="1"/>
        <pt x="956" y="1200" on="1"/>
        <pt x="956" y="0" on="1"/>
      </contour>
    </TTGlyph>
    <TTGlyph name="uniABDD" xMin="88" yMin="0" xMax="1151" yMax="1350">
      <contour>
        <pt x="1085" y="557" on="1"/>
        <pt x="776" y="557" on="1"/>
        <pt x="776" y="0" on="1"/>
        <pt x="610" y="0" on="1"/>
        <pt x="610" y="557" on="1"/>
        <pt x="324" y="557" on="1"/>
        <pt x="324" y="0" on="1"/>
        <pt x="158" y="0" on="1"/>
        <pt x="158" y="1198" on="1"/>
        <pt x="88" y="1198" on="1"/>
        <pt x="88" y="1350" on="1"/>
        <pt x="1151" y="1350" on="1"/>
        <pt x="1151" y="1198" on="1"/>
        <pt x="776" y="1198" on="1"/>
        <pt x="776" y="702" on="1"/>
        <pt x="1085" y="702" on="1"/>
      </contour>
      <contour>
        <pt x="324" y="702" on="1"/>
        <pt x="610" y="702" on="1"/>
        <pt x="610" y="1198" on="1"/>
        <pt x="324" y="1198" on="1"/>
      </contour>
    </TTGlyph>
    <TTGlyph name="uniABDE" xMin="53" yMin="0" xMax="1610" yMax="1350">
      <contour>
        <pt x="750" y="0" on="1"/>
        <pt x="750" y="1200" on="1"/>
        <pt x="299" y="1200" on="1"/>
        <pt x="428" y="1043" on="0"/>
        <pt x="565" y="709" on="0"/>
        <pt x="565" y="557" on="1"/>
        <pt x="565" y="417" on="0"/>
        <pt x="452" y="179" on="0"/>
        <pt x="243" y="24" on="0"/>
        <pt x="100" y="0" on="1"/>
        <pt x="53" y="150" on="1"/>
        <pt x="219" y="185" on="0"/>
        <pt x="399" y="412" on="0"/>
        <pt x="399" y="584" on="1"/>
        <pt x="399" y="738" on="0"/>
        <pt x="233" y="1065" on="0"/>
        <pt x="84" y="1200" on="1"/>
        <pt x="84" y="1350" on="1"/>
        <pt x="1577" y="1350" on="1"/>
        <pt x="1577" y="1200" on="1"/>
        <pt x="1436" y="1061" on="0"/>
        <pt x="1268" y="727" on="0"/>
        <pt x="1268" y="584" on="1"/>
        <pt x="1268" y="411" on="0"/>
        <pt x="1446" y="185" on="0"/>
        <pt x="1610" y="150" on="1"/>
        <pt x="1565" y="0" on="1"/>
        <pt x="1422" y="24" on="0"/>
        <pt x="1212" y="179" on="0"/>
        <pt x="1098" y="417" on="0"/>
        <pt x="1098" y="557" on="1"/>
        <pt x="1098" y="707" on="0"/>
        <pt x="1238" y="1043" on="0"/>
        <pt x="1368" y="1200" on="1"/>
        <pt x="915" y="1200" on="1"/>
        <pt x="915" y="0" on="1"/>
      </contour>
    </TTGlyph>
    <TTGlyph name="uniABDF" xMin="76" yMin="-8" xMax="1487" yMax="1350">
      <contour>
        <pt x="1444" y="201" on="1"/>
        <pt x="1136" y="-8" on="0"/>
        <pt x="786" y="-8" on="1"/>
        <pt x="596" y="-8" on="0"/>
        <pt x="283" y="168" on="0"/>
        <pt x="121" y="466" on="0"/>
        <pt x="121" y="659" on="1"/>
        <pt x="121" y="919" on="0"/>
        <pt x="203" y="1200" on="1"/>
        <pt x="76" y="1200" on="1"/>
        <pt x="76" y="1350" on="1"/>
        <pt x="1487" y="1350" on="1"/>
        <pt x="1487" y="1200" on="1"/>
        <pt x="1362" y="1200" on="1"/>
        <pt x="1176" y="844" on="1"/>
        <pt x="1026" y="897" on="1"/>
        <pt x="1192" y="1200" on="1"/>
        <pt x="768" y="1200" on="1"/>
        <pt x="680" y="936" on="0"/>
        <pt x="680" y="805" on="1"/>
        <pt x="680" y="693" on="0"/>
        <pt x="791" y="569" on="0"/>
        <pt x="893" y="569" on="1"/>
        <pt x="951" y="569" on="0"/>
        <pt x="1090" y="614" on="0"/>
        <pt x="1147" y="653" on="1"/>
        <pt x="1239" y="528" on="1"/>
        <pt x="1153" y="473" on="0"/>
        <pt x="964" y="418" on="0"/>
        <pt x="881" y="418" on="1"/>
        <pt x="709" y="418" on="0"/>
        <pt x="516" y="622" on="0"/>
        <pt x="516" y="807" on="1"/>
        <pt x="516" y="953" on="0"/>
        <pt x="592" y="1200" on="1"/>
        <pt x="385" y="1200" on="1"/>
        <pt x="295" y="916" on="0"/>
        <pt x="295" y="659" on="1"/>
        <pt x="295" y="498" on="0"/>
        <pt x="418" y="265" on="0"/>
        <pt x="646" y="143" on="0"/>
        <pt x="801" y="143" on="1"/>
        <pt x="1097" y="143" on="0"/>
        <pt x="1346" y="322" on="1"/>
      </contour>
    </TTGlyph>
    <TTGlyph name="uniABE0" xMin="45" yMin="-6" xMax="1321" yMax="1366">
      <contour>
        <pt x="252" y="868" on="1"/>
        <pt x="559" y="868" on="0"/>
        <pt x="733" y="831" on="1"/>
        <pt x="791" y="908" on="0"/>
        <pt x="989" y="1134" on="0"/>
        <pt x="1208" y="1362" on="1"/>
        <pt x="1321" y="1257" on="1"/>
        <pt x="1028" y="964" on="0"/>
        <pt x="899" y="791" on="1"/>
        <pt x="1093" y="727" on="0"/>
        <pt x="1286" y="508" on="0"/>
        <pt x="1286" y="358" on="1"/>
        <pt x="1286" y="251" on="0"/>
        <pt x="1189" y="86" on="0"/>
        <pt x="1022" y="-6" on="0"/>
        <pt x="930" y="-6" on="1"/>
        <pt x="815" y="-6" on="0"/>
        <pt x="641" y="83" on="0"/>
        <pt x="543" y="249" on="0"/>
        <pt x="543" y="371" on="1"/>
        <pt x="543" y="524" on="0"/>
        <pt x="647" y="696" on="1"/>
        <pt x="500" y="717" on="0"/>
        <pt x="311" y="717" on="1"/>
        <pt x="238" y="717" on="0"/>
        <pt x="156" y="711" on="1"/>
        <pt x="45" y="836" on="1"/>
        <pt x="365" y="1366" on="1"/>
        <pt x="512" y="1284" on="1"/>
      </contour>
      <contour>
        <pt x="713" y="373" on="1"/>
        <pt x="713" y="265" on="0"/>
        <pt x="823" y="152" on="0"/>
        <pt x="922" y="152" on="1"/>
        <pt x="1009" y="152" on="0"/>
        <pt x="1120" y="261" on="0"/>
        <pt x="1120" y="354" on="1"/>
        <pt x="1120" y="568" on="0"/>
        <pt x="809" y="657" on="1"/>
        <pt x="713" y="507" on="0"/>
      </contour>
    </TTGlyph>
    <TTGlyph name="uniABE1" xMin="86" yMin="0" xMax="1249" yMax="1350">
      <contour>
        <pt x="1171" y="0" on="1"/>
        <pt x="156" y="0" on="1"/>
        <pt x="156" y="1198" on="1"/>
        <pt x="86" y="1198" on="1"/>
        <pt x="86" y="1350" on="1"/>
        <pt x="1249" y="1350" on="1"/>
        <pt x="1249" y="1198" on="1"/>
        <pt x="1171" y="1198" on="1"/>
      </contour>
      <contour>
        <pt x="748" y="143" on="1"/>
        <pt x="1001" y="143" on="1"/>
        <pt x="1001" y="1198" on="1"/>
        <pt x="748" y="1198" on="1"/>
      </contour>
      <contour>
        <pt x="328" y="143" on="1"/>
        <pt x="582" y="143" on="1"/>
        <pt x="582" y="1198" on="1"/>
        <pt x="328" y="1198" on="1"/>
      </contour>
    </TTGlyph>
    <TTGlyph name="uniABE2" xMin="45" yMin="0" xMax="1473" yMax="1350">
      <contour>
        <pt x="995" y="365" on="1"/>
        <pt x="1011" y="270" on="0"/>
        <pt x="1087" y="184" on="0"/>
        <pt x="1155" y="184" on="1"/>
        <pt x="1223" y="184" on="0"/>
        <pt x="1307" y="281" on="0"/>
        <pt x="1307" y="360" on="1"/>
        <pt x="1307" y="498" on="0"/>
        <pt x="1115" y="635" on="0"/>
        <pt x="897" y="635" on="1"/>
        <pt x="770" y="635" on="0"/>
        <pt x="592" y="594" on="1"/>
        <pt x="596" y="524" on="1"/>
        <pt x="596" y="317" on="0"/>
        <pt x="325" y="36" on="0"/>
        <pt x="92" y="0" on="1"/>
        <pt x="45" y="160" on="1"/>
        <pt x="232" y="186" on="0"/>
        <pt x="430" y="380" on="0"/>
        <pt x="430" y="539" on="1"/>
        <pt x="430" y="694" on="0"/>
        <pt x="237" y="1058" on="0"/>
        <pt x="76" y="1200" on="1"/>
        <pt x="76" y="1350" on="1"/>
        <pt x="1470" y="1350" on="1"/>
        <pt x="1470" y="1200" on="1"/>
        <pt x="287" y="1200" on="1"/>
        <pt x="483" y="978" on="0"/>
        <pt x="559" y="739" on="1"/>
        <pt x="752" y="782" on="0"/>
        <pt x="891" y="782" on="1"/>
        <pt x="1191" y="782" on="0"/>
        <pt x="1473" y="576" on="0"/>
        <pt x="1473" y="367" on="1"/>
        <pt x="1473" y="263" on="0"/>
        <pt x="1388" y="116" on="0"/>
        <pt x="1243" y="35" on="0"/>
        <pt x="1155" y="35" on="1"/>
        <pt x="1014" y="35" on="0"/>
        <pt x="850" y="185" on="0"/>
        <pt x="831" y="324" on="1"/>
      </contour>
    </TTGlyph>
    <TTGlyph name="uniABE3" xMin="-16" yMin="1044" xMax="475" yMax="1722">
      <contour>
        <pt x="55" y="1722" on="1"/>
        <pt x="262" y="1599" on="0"/>
        <pt x="475" y="1351" on="0"/>
        <pt x="475" y="1243" on="1"/>
        <pt x="475" y="1153" on="0"/>
        <pt x="354" y="1044" on="0"/>
        <pt x="262" y="1044" on="1"/>
        <pt x="167" y="1044" on="0"/>
        <pt x="53" y="1154" on="0"/>
        <pt x="53" y="1247" on="1"/>
        <pt x="53" y="1317" on="0"/>
        <pt x="127" y="1418" on="0"/>
        <pt x="190" y="1462" on="1"/>
        <pt x="156" y="1500" on="0"/>
        <pt x="46" y="1572" on="0"/>
        <pt x="-16" y="1610" on="1"/>
      </contour>
      <contour>
        <pt x="338" y="1253" on="1"/>
        <pt x="338" y="1291" on="0"/>
        <pt x="306" y="1362" on="0"/>
        <pt x="279" y="1386" on="1"/>
        <pt x="235" y="1359" on="0"/>
        <pt x="182" y="1294" on="0"/>
        <pt x="182" y="1247" on="1"/>
        <pt x="182" y="1207" on="0"/>
        <pt x="226" y="1163" on="0"/>
        <pt x="258" y="1163" on="1"/>
        <pt x="289" y="1163" on="0"/>
        <pt x="338" y="1212" on="0"/>
      </contour>
    </TTGlyph>
    <TTGlyph name="uniABE4" xMin="39" yMin="-4" xMax="778" yMax="1731">
      <contour>
        <pt x="233" y="-4" on="1"/>
        <pt x="233" y="1192" on="1"/>
        <pt x="39" y="1192" on="1"/>
        <pt x="39" y="1350" on="1"/>
        <pt x="233" y="1350" on="1"/>
        <pt x="233" y="1460" on="1"/>
        <pt x="233" y="1597" on="0"/>
        <pt x="377" y="1731" on="0"/>
        <pt x="508" y="1731" on="1"/>
        <pt x="630" y="1731" on="0"/>
        <pt x="778" y="1594" on="0"/>
        <pt x="778" y="1475" on="1"/>
        <pt x="778" y="1338" on="0"/>
        <pt x="590" y="1194" on="0"/>
        <pt x="408" y="1192" on="1"/>
        <pt x="408" y="-4" on="1"/>
      </contour>
      <contour>
        <pt x="408" y="1350" on="1"/>
        <pt x="511" y="1350" on="0"/>
        <pt x="606" y="1415" on="0"/>
        <pt x="606" y="1483" on="1"/>
        <pt x="606" y="1585" on="0"/>
        <pt x="508" y="1585" on="1"/>
        <pt x="457" y="1585" on="0"/>
        <pt x="408" y="1531" on="0"/>
        <pt x="408" y="1460" on="1"/>
      </contour>
    </TTGlyph>
    <TTGlyph name="uniABE5" xMin="-631" yMin="1513" xMax="-188" yMax="1915">
      <contour>
        <pt x="-528" y="1915" on="1"/>
        <pt x="-188" y="1624" on="1"/>
        <pt x="-279" y="1513" on="1"/>
        <pt x="-631" y="1782" on="1"/>
      </contour>
    </TTGlyph>
    <TTGlyph name="uniABE6" xMin="33" yMin="846" xMax="586" yMax="1356">
      <contour>
        <pt x="33" y="1096" on="1"/>
        <pt x="33" y="1206" on="0"/>
        <pt x="192" y="1356" on="0"/>
        <pt x="303" y="1356" on="1"/>
        <pt x="423" y="1356" on="0"/>
        <pt x="586" y="1206" on="0"/>
        <pt x="586" y="1096" on="1"/>
        <pt x="586" y="990" on="0"/>
        <pt x="426" y="846" on="0"/>
        <pt x="303" y="846" on="1"/>
        <pt x="189" y="846" on="0"/>
        <pt x="33" y="990" on="0"/>
      </contour>
      <contour>
        <pt x="303" y="1227" on="1"/>
        <pt x="254" y="1227" on="0"/>
        <pt x="182" y="1154" on="0"/>
        <pt x="182" y="1102" on="1"/>
        <pt x="182" y="1048" on="0"/>
        <pt x="251" y="977" on="0"/>
        <pt x="303" y="977" on="1"/>
        <pt x="359" y="977" on="0"/>
        <pt x="430" y="1046" on="0"/>
        <pt x="430" y="1102" on="1"/>
        <pt x="430" y="1155" on="0"/>
        <pt x="356" y="1227" on="0"/>
      </contour>
    </TTGlyph>
    <TTGlyph name="uniABE7" xMin="-140" yMin="1043" xMax="620" yMax="1728">
      <contour>
        <pt x="380" y="1308" on="1"/>
        <pt x="380" y="1260" on="0"/>
        <pt x="367" y="1166" on="0"/>
        <pt x="315" y="1090" on="0"/>
        <pt x="211" y="1043" on="0"/>
        <pt x="121" y="1043" on="1"/>
        <pt x="40" y="1043" on="1"/>
        <pt x="40" y="1184" on="1"/>
        <pt x="124" y="1184" on="1"/>
        <pt x="165" y="1184" on="0"/>
        <pt x="212" y="1205" on="0"/>
        <pt x="235" y="1239" on="0"/>
        <pt x="241" y="1280" on="0"/>
        <pt x="243" y="1300" on="1"/>
        <pt x="61" y="1300" on="0"/>
        <pt x="-135" y="1504" on="0"/>
        <pt x="-140" y="1722" on="1"/>
        <pt x="-3" y="1722" on="1"/>
        <pt x="0" y="1565" on="0"/>
        <pt x="121" y="1416" on="0"/>
        <pt x="235" y="1415" on="1"/>
        <pt x="227" y="1444" on="0"/>
        <pt x="220" y="1492" on="0"/>
        <pt x="220" y="1526" on="1"/>
        <pt x="220" y="1623" on="0"/>
        <pt x="326" y="1728" on="0"/>
        <pt x="423" y="1728" on="1"/>
        <pt x="466" y="1728" on="0"/>
        <pt x="539" y="1698" on="0"/>
        <pt x="591" y="1646" on="0"/>
        <pt x="620" y="1575" on="0"/>
        <pt x="620" y="1534" on="1"/>
        <pt x="620" y="1442" on="0"/>
        <pt x="501" y="1337" on="0"/>
      </contour>
      <contour>
        <pt x="349" y="1521" on="1"/>
        <pt x="349" y="1496" on="0"/>
        <pt x="356" y="1458" on="0"/>
        <pt x="364" y="1431" on="1"/>
        <pt x="430" y="1446" on="0"/>
        <pt x="491" y="1492" on="0"/>
        <pt x="491" y="1528" on="1"/>
        <pt x="491" y="1603" on="0"/>
        <pt x="423" y="1603" on="1"/>
        <pt x="349" y="1603" on="0"/>
      </contour>
    </TTGlyph>
    <TTGlyph name="uniABE8" xMin="-811" yMin="-410" xMax="-127" yMax="-121">
      <contour>
        <pt x="-248" y="-410" on="1"/>
        <pt x="-245" y="-383" on="1"/>
        <pt x="-242" y="-330" on="1"/>
        <pt x="-242" y="-280" on="0"/>
        <pt x="-279" y="-233" on="0"/>
        <pt x="-326" y="-233" on="1"/>
        <pt x="-358" y="-233" on="0"/>
        <pt x="-408" y="-277" on="0"/>
        <pt x="-408" y="-315" on="1"/>
        <pt x="-408" y="-410" on="1"/>
        <pt x="-526" y="-410" on="1"/>
        <pt x="-526" y="-315" on="1"/>
        <pt x="-526" y="-277" on="0"/>
        <pt x="-577" y="-233" on="0"/>
        <pt x="-614" y="-233" on="1"/>
        <pt x="-659" y="-233" on="0"/>
        <pt x="-696" y="-280" on="0"/>
        <pt x="-696" y="-330" on="1"/>
        <pt x="-696" y="-389" on="0"/>
        <pt x="-690" y="-410" on="1"/>
        <pt x="-803" y="-410" on="1"/>
        <pt x="-811" y="-354" on="0"/>
        <pt x="-811" y="-324" on="1"/>
        <pt x="-811" y="-222" on="0"/>
        <pt x="-713" y="-121" on="0"/>
        <pt x="-621" y="-121" on="1"/>
        <pt x="-513" y="-121" on="0"/>
        <pt x="-467" y="-201" on="1"/>
        <pt x="-444" y="-163" on="0"/>
        <pt x="-366" y="-121" on="0"/>
        <pt x="-319" y="-121" on="1"/>
        <pt x="-127" y="-121" on="0"/>
        <pt x="-127" y="-324" on="1"/>
        <pt x="-127" y="-390" on="0"/>
        <pt x="-135" y="-410" on="1"/>
      </contour>
    </TTGlyph>
    <TTGlyph name="uniABE9" xMin="-627" yMin="1409" xMax="158" yMax="2015">
      <contour>
        <pt x="-485" y="2007" on="1"/>
        <pt x="-483" y="1893" on="0"/>
        <pt x="-440" y="1771" on="0"/>
        <pt x="-352" y="1702" on="0"/>
        <pt x="-281" y="1698" on="1"/>
        <pt x="-281" y="1796" on="1"/>
        <pt x="-281" y="1902" on="0"/>
        <pt x="-167" y="2015" on="0"/>
        <pt x="-61" y="2015" on="1"/>
        <pt x="33" y="2015" on="0"/>
        <pt x="158" y="1898" on="0"/>
        <pt x="158" y="1810" on="1"/>
        <pt x="158" y="1707" on="0"/>
        <pt x="1" y="1577" on="0"/>
        <pt x="-137" y="1573" on="1"/>
        <pt x="-137" y="1409" on="1"/>
        <pt x="-281" y="1409" on="1"/>
        <pt x="-281" y="1573" on="1"/>
        <pt x="-451" y="1578" on="0"/>
        <pt x="-627" y="1783" on="0"/>
        <pt x="-627" y="2007" on="1"/>
      </contour>
      <contour>
        <pt x="-137" y="1698" on="1"/>
        <pt x="-61" y="1700" on="0"/>
        <pt x="12" y="1752" on="0"/>
        <pt x="12" y="1810" on="1"/>
        <pt x="12" y="1888" on="0"/>
        <pt x="-57" y="1888" on="1"/>
        <pt x="-101" y="1888" on="0"/>
        <pt x="-137" y="1840" on="0"/>
        <pt x="-137" y="1790" on="1"/>
      </contour>
    </TTGlyph>
    <TTGlyph name="uniABEA" xMin="-310" yMin="1396" xMax="106" yMax="2065">
      <contour>
        <pt x="-302" y="1492" on="1"/>
        <pt x="-194" y="1577" on="0"/>
        <pt x="-142" y="1641" on="1"/>
        <pt x="-210" y="1670" on="0"/>
        <pt x="-310" y="1804" on="0"/>
        <pt x="-310" y="1867" on="1"/>
        <pt x="-310" y="1951" on="0"/>
        <pt x="-191" y="2065" on="0"/>
        <pt x="-103" y="2065" on="1"/>
        <pt x="-16" y="2065" on="0"/>
        <pt x="106" y="1953" on="0"/>
        <pt x="106" y="1871" on="1"/>
        <pt x="106" y="1775" on="0"/>
        <pt x="-59" y="1528" on="0"/>
        <pt x="-212" y="1396" on="1"/>
      </contour>
      <contour>
        <pt x="-71" y="1729" on="1"/>
        <pt x="-21" y="1788" on="0"/>
        <pt x="-21" y="1850" on="1"/>
        <pt x="-21" y="1888" on="0"/>
        <pt x="-66" y="1944" on="0"/>
        <pt x="-101" y="1944" on="1"/>
        <pt x="-136" y="1944" on="0"/>
        <pt x="-179" y="1892" on="0"/>
        <pt x="-179" y="1858" on="1"/>
        <pt x="-179" y="1829" on="0"/>
        <pt x="-140" y="1775" on="0"/>
      </contour>
    </TTGlyph>
    <TTGlyph name="uniABEB" xMin="176" yMin="-61" xMax="750" yMax="1409">
      <contour>
        <pt x="176" y="-61" on="1"/>
        <pt x="176" y="1409" on="1"/>
        <pt x="344" y="1409" on="1"/>
        <pt x="344" y="-61" on="1"/>
      </contour>
      <contour>
        <pt x="584" y="-61" on="1"/>
        <pt x="584" y="1409" on="1"/>
        <pt x="750" y="1409" on="1"/>
        <pt x="750" y="-61" on="1"/>
      </contour>
    </TTGlyph>
    <TTGlyph name="uniABEC" xMin="137" yMin="154" xMax="393" yMax="416">
      <contour>
        <pt x="262" y="416" on="1"/>
        <pt x="318" y="416" on="0"/>
        <pt x="393" y="340" on="0"/>
        <pt x="393" y="287" on="1"/>
        <pt x="393" y="231" on="0"/>
        <pt x="319" y="154" on="0"/>
        <pt x="262" y="154" on="1"/>
        <pt x="211" y="154" on="0"/>
        <pt x="137" y="231" on="0"/>
        <pt x="137" y="287" on="1"/>
        <pt x="137" y="341" on="0"/>
        <pt x="212" y="416" on="0"/>
      </contour>
    </TTGlyph>
    <TTGlyph name="uniABED" xMin="-1180" yMin="-369" xMax="1329" yMax="-223">
      <contour>
        <pt x="-1180" y="-223" on="1"/>
        <pt x="1329" y="-223" on="1"/>
        <pt x="1329" y="-369" on="1"/>
        <pt x="-1180" y="-369" on="1"/>
      </contour>
    </TTGlyph>
    <TTGlyph name="uniABF0" xMin="90" yMin="-25" xMax="1208" yMax="1372">
      <contour>
        <pt x="90" y="659" on="1"/>
        <pt x="90" y="988" on="0"/>
        <pt x="385" y="1372" on="0"/>
        <pt x="639" y="1372" on="1"/>
        <pt x="910" y="1372" on="0"/>
        <pt x="1208" y="997" on="0"/>
        <pt x="1208" y="659" on="1"/>
        <pt x="1208" y="455" on="0"/>
        <pt x="1070" y="143" on="0"/>
        <pt x="812" y="-25" on="0"/>
        <pt x="639" y="-25" on="1"/>
        <pt x="387" y="-25" on="0"/>
        <pt x="90" y="344" on="0"/>
      </contour>
      <contour>
        <pt x="639" y="1219" on="1"/>
        <pt x="453" y="1219" on="0"/>
        <pt x="256" y="938" on="0"/>
        <pt x="256" y="670" on="1"/>
        <pt x="256" y="404" on="0"/>
        <pt x="450" y="129" on="0"/>
        <pt x="639" y="129" on="1"/>
        <pt x="838" y="129" on="0"/>
        <pt x="1030" y="385" on="0"/>
        <pt x="1030" y="670" on="1"/>
        <pt x="1030" y="956" on="0"/>
        <pt x="837" y="1219" on="0"/>
      </contour>
    </TTGlyph>
    <TTGlyph name="uniABF1" xMin="84" yMin="-29" xMax="1104" yMax="1362">
      <contour>
        <pt x="680" y="924" on="1"/>
        <pt x="696" y="893" on="0"/>
        <pt x="770" y="844" on="0"/>
        <pt x="807" y="844" on="1"/>
        <pt x="868" y="844" on="0"/>
        <pt x="936" y="917" on="0"/>
        <pt x="936" y="989" on="1"/>
        <pt x="936" y="1217" on="0"/>
        <pt x="606" y="1217" on="1"/>
        <pt x="437" y="1217" on="0"/>
        <pt x="250" y="1083" on="0"/>
        <pt x="250" y="965" on="1"/>
        <pt x="250" y="867" on="0"/>
        <pt x="403" y="696" on="0"/>
        <pt x="592" y="602" on="1"/>
        <pt x="768" y="511" on="0"/>
        <pt x="899" y="345" on="0"/>
        <pt x="899" y="236" on="1"/>
        <pt x="899" y="116" on="0"/>
        <pt x="736" y="-29" on="0"/>
        <pt x="606" y="-29" on="1"/>
        <pt x="505" y="-29" on="0"/>
        <pt x="334" y="65" on="0"/>
        <pt x="274" y="152" on="1"/>
        <pt x="408" y="233" on="1"/>
        <pt x="444" y="180" on="0"/>
        <pt x="551" y="115" on="0"/>
        <pt x="600" y="115" on="1"/>
        <pt x="662" y="115" on="0"/>
        <pt x="737" y="184" on="0"/>
        <pt x="737" y="244" on="1"/>
        <pt x="737" y="310" on="0"/>
        <pt x="616" y="429" on="0"/>
        <pt x="475" y="506" on="1"/>
        <pt x="303" y="599" on="0"/>
        <pt x="162" y="722" on="0"/>
        <pt x="84" y="869" on="0"/>
        <pt x="84" y="965" on="1"/>
        <pt x="84" y="1147" on="0"/>
        <pt x="363" y="1362" on="0"/>
        <pt x="604" y="1362" on="1"/>
        <pt x="750" y="1362" on="0"/>
        <pt x="978" y="1266" on="0"/>
        <pt x="1104" y="1095" on="0"/>
        <pt x="1104" y="991" on="1"/>
        <pt x="1104" y="849" on="0"/>
        <pt x="954" y="688" on="0"/>
        <pt x="811" y="688" on="1"/>
        <pt x="730" y="688" on="0"/>
        <pt x="589" y="767" on="0"/>
        <pt x="545" y="836" on="1"/>
      </contour>
    </TTGlyph>
    <TTGlyph name="uniABF2" xMin="74" yMin="-18" xMax="1251" yMax="1362">
      <contour>
        <pt x="680" y="924" on="1"/>
        <pt x="696" y="893" on="0"/>
        <pt x="770" y="844" on="0"/>
        <pt x="807" y="844" on="1"/>
        <pt x="868" y="844" on="0"/>
        <pt x="936" y="917" on="0"/>
        <pt x="936" y="989" on="1"/>
        <pt x="936" y="1103" on="0"/>
        <pt x="764" y="1217" on="0"/>
        <pt x="602" y="1217" on="1"/>
        <pt x="428" y="1217" on="0"/>
        <pt x="242" y="1084" on="0"/>
        <pt x="242" y="958" on="1"/>
        <pt x="242" y="861" on="0"/>
        <pt x="400" y="685" on="0"/>
        <pt x="590" y="590" on="1"/>
        <pt x="690" y="539" on="1"/>
        <pt x="702" y="541" on="1"/>
        <pt x="711" y="541" on="1"/>
        <pt x="742" y="543" on="1"/>
        <pt x="776" y="543" on="1"/>
        <pt x="1004" y="543" on="0"/>
        <pt x="1251" y="339" on="0"/>
        <pt x="1251" y="154" on="1"/>
        <pt x="1251" y="82" on="0"/>
        <pt x="1233" y="12" on="1"/>
        <pt x="1069" y="45" on="1"/>
        <pt x="1087" y="103" on="0"/>
        <pt x="1087" y="164" on="1"/>
        <pt x="1087" y="280" on="0"/>
        <pt x="951" y="414" on="0"/>
        <pt x="821" y="418" on="1"/>
        <pt x="901" y="336" on="0"/>
        <pt x="901" y="238" on="1"/>
        <pt x="901" y="126" on="0"/>
        <pt x="740" y="-18" on="0"/>
        <pt x="616" y="-18" on="1"/>
        <pt x="487" y="-18" on="0"/>
        <pt x="334" y="113" on="0"/>
        <pt x="334" y="225" on="1"/>
        <pt x="334" y="298" on="0"/>
        <pt x="423" y="429" on="0"/>
        <pt x="504" y="475" on="1"/>
        <pt x="485" y="485" on="1"/>
        <pt x="457" y="504" on="1"/>
        <pt x="304" y="587" on="0"/>
        <pt x="155" y="716" on="0"/>
        <pt x="74" y="864" on="0"/>
        <pt x="74" y="958" on="1"/>
        <pt x="74" y="1148" on="0"/>
        <pt x="354" y="1362" on="0"/>
        <pt x="600" y="1362" on="1"/>
        <pt x="746" y="1362" on="0"/>
        <pt x="976" y="1266" on="0"/>
        <pt x="1102" y="1096" on="0"/>
        <pt x="1102" y="991" on="1"/>
        <pt x="1102" y="847" on="0"/>
        <pt x="951" y="688" on="0"/>
        <pt x="811" y="688" on="1"/>
        <pt x="727" y="688" on="0"/>
        <pt x="583" y="770" on="0"/>
        <pt x="545" y="836" on="1"/>
      </contour>
      <contour>
        <pt x="731" y="233" on="1"/>
        <pt x="731" y="338" on="0"/>
        <pt x="645" y="391" on="1"/>
        <pt x="582" y="375" on="0"/>
        <pt x="498" y="287" on="0"/>
        <pt x="498" y="227" on="1"/>
        <pt x="498" y="185" on="0"/>
        <pt x="556" y="127" on="0"/>
        <pt x="616" y="127" on="1"/>
        <pt x="669" y="127" on="0"/>
        <pt x="731" y="184" on="0"/>
      </contour>
    </TTGlyph>
    <TTGlyph name="uniABF3" xMin="74" yMin="-18" xMax="1686" yMax="1362">
      <contour>
        <pt x="725" y="233" on="1"/>
        <pt x="725" y="329" on="0"/>
        <pt x="643" y="391" on="1"/>
        <pt x="582" y="375" on="0"/>
        <pt x="500" y="286" on="0"/>
        <pt x="500" y="227" on="1"/>
        <pt x="500" y="185" on="0"/>
        <pt x="557" y="127" on="0"/>
        <pt x="614" y="127" on="1"/>
        <pt x="659" y="127" on="0"/>
        <pt x="725" y="177" on="0"/>
      </contour>
      <contour>
        <pt x="678" y="924" on="1"/>
        <pt x="697" y="892" on="0"/>
        <pt x="772" y="844" on="0"/>
        <pt x="809" y="844" on="1"/>
        <pt x="870" y="844" on="0"/>
        <pt x="936" y="916" on="0"/>
        <pt x="936" y="989" on="1"/>
        <pt x="936" y="1103" on="0"/>
        <pt x="763" y="1217" on="0"/>
        <pt x="600" y="1217" on="1"/>
        <pt x="428" y="1217" on="0"/>
        <pt x="244" y="1085" on="0"/>
        <pt x="244" y="958" on="1"/>
        <pt x="244" y="884" on="0"/>
        <pt x="311" y="767" on="0"/>
        <pt x="432" y="668" on="0"/>
        <pt x="598" y="580" on="1"/>
        <pt x="686" y="532" on="1"/>
        <pt x="806" y="553" on="0"/>
        <pt x="920" y="553" on="1"/>
        <pt x="1078" y="553" on="0"/>
        <pt x="1194" y="498" on="1"/>
        <pt x="1248" y="532" on="0"/>
        <pt x="1348" y="569" on="0"/>
        <pt x="1407" y="569" on="1"/>
        <pt x="1493" y="569" on="0"/>
        <pt x="1627" y="510" on="0"/>
        <pt x="1686" y="436" on="1"/>
        <pt x="1575" y="346" on="1"/>
        <pt x="1534" y="396" on="0"/>
        <pt x="1457" y="440" on="0"/>
        <pt x="1401" y="440" on="1"/>
        <pt x="1359" y="440" on="0"/>
        <pt x="1319" y="418" on="1"/>
        <pt x="1371" y="365" on="0"/>
        <pt x="1415" y="269" on="0"/>
        <pt x="1415" y="209" on="1"/>
        <pt x="1415" y="115" on="0"/>
        <pt x="1295" y="6" on="0"/>
        <pt x="1196" y="6" on="1"/>
        <pt x="1105" y="6" on="0"/>
        <pt x="987" y="116" on="0"/>
        <pt x="987" y="205" on="1"/>
        <pt x="987" y="311" on="0"/>
        <pt x="1073" y="406" on="1"/>
        <pt x="1009" y="428" on="0"/>
        <pt x="946" y="428" on="1"/>
        <pt x="865" y="428" on="0"/>
        <pt x="811" y="412" on="1"/>
        <pt x="885" y="329" on="0"/>
        <pt x="885" y="229" on="1"/>
        <pt x="885" y="113" on="0"/>
        <pt x="736" y="-18" on="0"/>
        <pt x="614" y="-18" on="1"/>
        <pt x="488" y="-18" on="0"/>
        <pt x="334" y="114" on="0"/>
        <pt x="334" y="225" on="1"/>
        <pt x="334" y="375" on="0"/>
        <pt x="504" y="467" on="1"/>
        <pt x="313" y="569" on="0"/>
        <pt x="156" y="703" on="0"/>
        <pt x="74" y="858" on="0"/>
        <pt x="74" y="958" on="1"/>
        <pt x="74" y="1148" on="0"/>
        <pt x="354" y="1362" on="0"/>
        <pt x="598" y="1362" on="1"/>
        <pt x="744" y="1362" on="0"/>
        <pt x="975" y="1266" on="0"/>
        <pt x="1102" y="1097" on="0"/>
        <pt x="1102" y="991" on="1"/>
        <pt x="1102" y="848" on="0"/>
        <pt x="954" y="688" on="0"/>
        <pt x="813" y="688" on="1"/>
        <pt x="727" y="688" on="0"/>
        <pt x="586" y="768" on="0"/>
        <pt x="547" y="836" on="1"/>
      </contour>
      <contour>
        <pt x="1274" y="223" on="1"/>
        <pt x="1274" y="305" on="0"/>
        <pt x="1202" y="365" on="1"/>
        <pt x="1126" y="307" on="0"/>
        <pt x="1126" y="221" on="1"/>
        <pt x="1126" y="179" on="0"/>
        <pt x="1162" y="129" on="0"/>
        <pt x="1196" y="129" on="1"/>
        <pt x="1274" y="129" on="0"/>
      </contour>
    </TTGlyph>
    <TTGlyph name="uniABF4" xMin="80" yMin="-25" xMax="1090" yMax="1362">
      <contour>
        <pt x="537" y="508" on="1"/>
        <pt x="635" y="653" on="0"/>
        <pt x="811" y="653" on="1"/>
        <pt x="944" y="653" on="0"/>
        <pt x="1090" y="494" on="0"/>
        <pt x="1090" y="354" on="1"/>
        <pt x="1090" y="247" on="0"/>
        <pt x="964" y="72" on="0"/>
        <pt x="738" y="-25" on="0"/>
        <pt x="592" y="-25" on="1"/>
        <pt x="350" y="-25" on="0"/>
        <pt x="80" y="192" on="0"/>
        <pt x="80" y="385" on="1"/>
        <pt x="80" y="487" on="0"/>
        <pt x="169" y="648" on="0"/>
        <pt x="350" y="786" on="0"/>
        <pt x="539" y="874" on="1"/>
        <pt x="676" y="941" on="0"/>
        <pt x="770" y="1034" on="0"/>
        <pt x="770" y="1087" on="1"/>
        <pt x="770" y="1145" on="0"/>
        <pt x="694" y="1217" on="0"/>
        <pt x="633" y="1217" on="1"/>
        <pt x="546" y="1217" on="0"/>
        <pt x="434" y="1117" on="0"/>
        <pt x="424" y="1026" on="1"/>
        <pt x="266" y="1061" on="1"/>
        <pt x="282" y="1161" on="0"/>
        <pt x="386" y="1293" on="0"/>
        <pt x="540" y="1362" on="0"/>
        <pt x="633" y="1362" on="1"/>
        <pt x="763" y="1362" on="0"/>
        <pt x="932" y="1208" on="0"/>
        <pt x="932" y="1085" on="1"/>
        <pt x="932" y="1015" on="0"/>
        <pt x="870" y="910" on="0"/>
        <pt x="757" y="822" on="0"/>
        <pt x="592" y="741" on="1"/>
        <pt x="455" y="674" on="0"/>
        <pt x="319" y="571" on="0"/>
        <pt x="242" y="453" on="0"/>
        <pt x="242" y="385" on="1"/>
        <pt x="242" y="258" on="0"/>
        <pt x="423" y="123" on="0"/>
        <pt x="594" y="123" on="1"/>
        <pt x="750" y="123" on="0"/>
        <pt x="926" y="248" on="0"/>
        <pt x="926" y="356" on="1"/>
        <pt x="926" y="510" on="0"/>
        <pt x="807" y="510" on="1"/>
        <pt x="760" y="510" on="0"/>
        <pt x="696" y="471" on="0"/>
        <pt x="670" y="428" on="1"/>
      </contour>
    </TTGlyph>
    <TTGlyph name="uniABF5" xMin="66" yMin="0" xMax="1206" yMax="1356">
      <contour>
        <pt x="983" y="879" on="1"/>
        <pt x="1034" y="935" on="0"/>
        <pt x="1034" y="999" on="1"/>
        <pt x="1034" y="1093" on="0"/>
        <pt x="827" y="1202" on="0"/>
        <pt x="649" y="1202" on="1"/>
        <pt x="446" y="1202" on="0"/>
        <pt x="242" y="1055" on="0"/>
        <pt x="242" y="901" on="1"/>
        <pt x="242" y="783" on="0"/>
        <pt x="359" y="639" on="0"/>
        <pt x="465" y="618" on="1"/>
        <pt x="465" y="670" on="1"/>
        <pt x="465" y="809" on="0"/>
        <pt x="586" y="942" on="0"/>
        <pt x="715" y="942" on="1"/>
        <pt x="822" y="942" on="0"/>
        <pt x="942" y="819" on="0"/>
        <pt x="942" y="715" on="1"/>
        <pt x="942" y="598" on="0"/>
        <pt x="781" y="470" on="0"/>
        <pt x="635" y="463" on="1"/>
        <pt x="635" y="0" on="1"/>
        <pt x="465" y="0" on="1"/>
        <pt x="465" y="471" on="1"/>
        <pt x="278" y="500" on="0"/>
        <pt x="66" y="731" on="0"/>
        <pt x="66" y="899" on="1"/>
        <pt x="66" y="1122" on="0"/>
        <pt x="367" y="1356" on="0"/>
        <pt x="653" y="1356" on="1"/>
        <pt x="898" y="1356" on="0"/>
        <pt x="1206" y="1144" on="0"/>
        <pt x="1206" y="977" on="1"/>
        <pt x="1206" y="861" on="0"/>
        <pt x="1114" y="756" on="1"/>
      </contour>
      <contour>
        <pt x="717" y="801" on="1"/>
        <pt x="683" y="801" on="0"/>
        <pt x="648" y="774" on="0"/>
        <pt x="633" y="714" on="0"/>
        <pt x="633" y="616" on="1"/>
        <pt x="690" y="616" on="0"/>
        <pt x="754" y="639" on="0"/>
        <pt x="784" y="679" on="0"/>
        <pt x="784" y="719" on="1"/>
        <pt x="784" y="755" on="0"/>
        <pt x="750" y="801" on="0"/>
      </contour>
    </TTGlyph>
    <TTGlyph name="uniABF6" xMin="70" yMin="0" xMax="1249" yMax="1356">
      <contour>
        <pt x="989" y="879" on="1"/>
        <pt x="1038" y="930" on="0"/>
        <pt x="1038" y="999" on="1"/>
        <pt x="1038" y="1093" on="0"/>
        <pt x="831" y="1202" on="0"/>
        <pt x="653" y="1202" on="1"/>
        <pt x="246" y="1202" on="0"/>
        <pt x="246" y="909" on="1"/>
        <pt x="246" y="794" on="0"/>
        <pt x="364" y="641" on="0"/>
        <pt x="471" y="618" on="1"/>
        <pt x="471" y="670" on="1"/>
        <pt x="471" y="810" on="0"/>
        <pt x="590" y="942" on="0"/>
        <pt x="719" y="942" on="1"/>
        <pt x="826" y="942" on="0"/>
        <pt x="946" y="819" on="0"/>
        <pt x="946" y="715" on="1"/>
        <pt x="946" y="601" on="0"/>
        <pt x="783" y="471" on="0"/>
        <pt x="635" y="463" on="1"/>
        <pt x="635" y="178" on="1"/>
        <pt x="1157" y="586" on="1"/>
        <pt x="1249" y="469" on="1"/>
        <pt x="980" y="266" on="0"/>
        <pt x="639" y="0" on="1"/>
        <pt x="471" y="0" on="1"/>
        <pt x="471" y="471" on="1"/>
        <pt x="281" y="499" on="0"/>
        <pt x="70" y="734" on="0"/>
        <pt x="70" y="909" on="1"/>
        <pt x="70" y="1126" on="0"/>
        <pt x="374" y="1356" on="0"/>
        <pt x="657" y="1356" on="1"/>
        <pt x="902" y="1356" on="0"/>
        <pt x="1210" y="1144" on="0"/>
        <pt x="1210" y="977" on="1"/>
        <pt x="1210" y="861" on="0"/>
        <pt x="1118" y="756" on="1"/>
      </contour>
      <contour>
        <pt x="721" y="801" on="1"/>
        <pt x="687" y="801" on="0"/>
        <pt x="652" y="774" on="0"/>
        <pt x="637" y="714" on="0"/>
        <pt x="637" y="616" on="1"/>
        <pt x="694" y="616" on="0"/>
        <pt x="758" y="639" on="0"/>
        <pt x="788" y="679" on="0"/>
        <pt x="788" y="719" on="1"/>
        <pt x="788" y="755" on="0"/>
        <pt x="754" y="801" on="0"/>
      </contour>
    </TTGlyph>
    <TTGlyph name="uniABF7" xMin="86" yMin="-25" xMax="1536" yMax="1391">
      <contour>
        <pt x="109" y="999" on="1"/>
        <pt x="86" y="1061" on="0"/>
        <pt x="86" y="1126" on="1"/>
        <pt x="86" y="1187" on="0"/>
        <pt x="161" y="1301" on="0"/>
        <pt x="295" y="1368" on="0"/>
        <pt x="375" y="1368" on="1"/>
        <pt x="522" y="1368" on="0"/>
        <pt x="714" y="1043" on="0"/>
        <pt x="750" y="737" on="1"/>
        <pt x="1057" y="862" on="1"/>
        <pt x="1032" y="943" on="0"/>
        <pt x="995" y="1086" on="0"/>
        <pt x="995" y="1149" on="1"/>
        <pt x="995" y="1254" on="0"/>
        <pt x="1143" y="1391" on="0"/>
        <pt x="1257" y="1391" on="1"/>
        <pt x="1379" y="1391" on="0"/>
        <pt x="1536" y="1246" on="0"/>
        <pt x="1536" y="1130" on="1"/>
        <pt x="1536" y="1029" on="0"/>
        <pt x="1408" y="871" on="0"/>
        <pt x="1245" y="784" on="1"/>
        <pt x="1329" y="464" on="0"/>
        <pt x="1329" y="289" on="1"/>
        <pt x="1329" y="151" on="0"/>
        <pt x="1152" y="-16" on="0"/>
        <pt x="989" y="-25" on="1"/>
        <pt x="948" y="127" on="1"/>
        <pt x="1063" y="139" on="0"/>
        <pt x="1169" y="233" on="0"/>
        <pt x="1169" y="328" on="1"/>
        <pt x="1169" y="499" on="0"/>
        <pt x="1104" y="713" on="1"/>
        <pt x="889" y="625" on="0"/>
        <pt x="762" y="578" on="1"/>
        <pt x="766" y="442" on="1"/>
        <pt x="766" y="221" on="0"/>
        <pt x="595" y="-14" on="0"/>
        <pt x="434" y="-14" on="1"/>
        <pt x="314" y="-14" on="0"/>
        <pt x="147" y="141" on="0"/>
        <pt x="147" y="260" on="1"/>
        <pt x="147" y="380" on="0"/>
        <pt x="346" y="577" on="0"/>
        <pt x="582" y="674" on="1"/>
        <pt x="557" y="930" on="0"/>
        <pt x="446" y="1223" on="0"/>
        <pt x="367" y="1223" on="1"/>
        <pt x="318" y="1223" on="0"/>
        <pt x="256" y="1170" on="0"/>
        <pt x="256" y="1126" on="1"/>
        <pt x="256" y="1096" on="0"/>
        <pt x="270" y="1057" on="1"/>
      </contour>
      <contour>
        <pt x="596" y="442" on="1"/>
        <pt x="596" y="474" on="1"/>
        <pt x="594" y="510" on="1"/>
        <pt x="440" y="438" on="0"/>
        <pt x="315" y="320" on="0"/>
        <pt x="315" y="256" on="1"/>
        <pt x="315" y="203" on="0"/>
        <pt x="377" y="131" on="0"/>
        <pt x="434" y="131" on="1"/>
        <pt x="512" y="131" on="0"/>
        <pt x="596" y="294" on="0"/>
      </contour>
      <contour>
        <pt x="1198" y="928" on="1"/>
        <pt x="1278" y="969" on="0"/>
        <pt x="1372" y="1084" on="0"/>
        <pt x="1372" y="1145" on="1"/>
        <pt x="1372" y="1194" on="0"/>
        <pt x="1314" y="1257" on="0"/>
        <pt x="1266" y="1257" on="1"/>
        <pt x="1214" y="1257" on="0"/>
        <pt x="1151" y="1195" on="0"/>
        <pt x="1151" y="1143" on="1"/>
        <pt x="1151" y="1067" on="0"/>
      </contour>
    </TTGlyph>
    <TTGlyph name="uniABF8" xMin="72" yMin="-12" xMax="1212" yMax="1356">
      <contour>
        <pt x="989" y="879" on="1"/>
        <pt x="1040" y="935" on="0"/>
        <pt x="1040" y="999" on="1"/>
        <pt x="1040" y="1093" on="0"/>
        <pt x="834" y="1202" on="0"/>
        <pt x="655" y="1202" on="1"/>
        <pt x="246" y="1202" on="0"/>
        <pt x="246" y="909" on="1"/>
        <pt x="246" y="796" on="0"/>
        <pt x="364" y="641" on="0"/>
        <pt x="471" y="618" on="1"/>
        <pt x="471" y="670" on="1"/>
        <pt x="471" y="809" on="0"/>
        <pt x="592" y="942" on="0"/>
        <pt x="721" y="942" on="1"/>
        <pt x="828" y="942" on="0"/>
        <pt x="948" y="819" on="0"/>
        <pt x="948" y="715" on="1"/>
        <pt x="948" y="598" on="0"/>
        <pt x="787" y="470" on="0"/>
        <pt x="641" y="463" on="1"/>
        <pt x="641" y="211" on="1"/>
        <pt x="641" y="110" on="0"/>
        <pt x="510" y="-12" on="0"/>
        <pt x="406" y="-12" on="1"/>
        <pt x="313" y="-12" on="0"/>
        <pt x="186" y="71" on="0"/>
        <pt x="125" y="168" on="1"/>
        <pt x="250" y="260" on="1"/>
        <pt x="300" y="180" on="0"/>
        <pt x="353" y="135" on="0"/>
        <pt x="391" y="135" on="1"/>
        <pt x="471" y="135" on="0"/>
        <pt x="471" y="227" on="1"/>
        <pt x="471" y="471" on="1"/>
        <pt x="283" y="499" on="0"/>
        <pt x="72" y="734" on="0"/>
        <pt x="72" y="909" on="1"/>
        <pt x="72" y="1126" on="0"/>
        <pt x="376" y="1356" on="0"/>
        <pt x="659" y="1356" on="1"/>
        <pt x="904" y="1356" on="0"/>
        <pt x="1212" y="1144" on="0"/>
        <pt x="1212" y="977" on="1"/>
        <pt x="1212" y="861" on="0"/>
        <pt x="1120" y="756" on="1"/>
      </contour>
      <contour>
        <pt x="723" y="801" on="1"/>
        <pt x="689" y="801" on="0"/>
        <pt x="654" y="774" on="0"/>
        <pt x="639" y="714" on="0"/>
        <pt x="639" y="616" on="1"/>
        <pt x="695" y="616" on="0"/>
        <pt x="761" y="639" on="0"/>
        <pt x="791" y="678" on="0"/>
        <pt x="791" y="719" on="1"/>
        <pt x="791" y="756" on="0"/>
        <pt x="755" y="801" on="0"/>
      </contour>
    </TTGlyph>
    <TTGlyph name="uniABF9" xMin="76" yMin="-12" xMax="1217" yMax="1356">
      <contour>
        <pt x="1024" y="309" on="1"/>
        <pt x="639" y="309" on="1"/>
        <pt x="639" y="219" on="1"/>
        <pt x="639" y="113" on="0"/>
        <pt x="505" y="-12" on="0"/>
        <pt x="393" y="-12" on="1"/>
        <pt x="291" y="-12" on="0"/>
        <pt x="160" y="109" on="0"/>
        <pt x="160" y="207" on="1"/>
        <pt x="160" y="432" on="0"/>
        <pt x="446" y="432" on="1"/>
        <pt x="485" y="432" on="1"/>
        <pt x="485" y="522" on="1"/>
        <pt x="76" y="585" on="0"/>
        <pt x="76" y="926" on="1"/>
        <pt x="76" y="1131" on="0"/>
        <pt x="383" y="1356" on="0"/>
        <pt x="664" y="1356" on="1"/>
        <pt x="909" y="1356" on="0"/>
        <pt x="1217" y="1144" on="0"/>
        <pt x="1217" y="977" on="1"/>
        <pt x="1217" y="851" on="0"/>
        <pt x="1141" y="762" on="1"/>
        <pt x="999" y="868" on="1"/>
        <pt x="1044" y="931" on="0"/>
        <pt x="1044" y="999" on="1"/>
        <pt x="1044" y="1095" on="0"/>
        <pt x="837" y="1210" on="0"/>
        <pt x="659" y="1210" on="1"/>
        <pt x="465" y="1210" on="0"/>
        <pt x="250" y="1060" on="0"/>
        <pt x="250" y="926" on="1"/>
        <pt x="250" y="696" on="0"/>
        <pt x="481" y="647" on="1"/>
        <pt x="481" y="700" on="1"/>
        <pt x="481" y="973" on="0"/>
        <pt x="725" y="973" on="1"/>
        <pt x="831" y="973" on="0"/>
        <pt x="952" y="846" on="0"/>
        <pt x="952" y="745" on="1"/>
        <pt x="952" y="641" on="0"/>
        <pt x="795" y="532" on="0"/>
        <pt x="639" y="522" on="1"/>
        <pt x="639" y="432" on="1"/>
        <pt x="1024" y="432" on="1"/>
      </contour>
      <contour>
        <pt x="397" y="119" on="1"/>
        <pt x="485" y="119" on="0"/>
        <pt x="485" y="223" on="1"/>
        <pt x="485" y="311" on="1"/>
        <pt x="386" y="311" on="0"/>
        <pt x="319" y="265" on="0"/>
        <pt x="319" y="217" on="1"/>
        <pt x="319" y="119" on="0"/>
      </contour>
      <contour>
        <pt x="727" y="831" on="1"/>
        <pt x="673" y="831" on="0"/>
        <pt x="633" y="759" on="0"/>
        <pt x="633" y="645" on="1"/>
        <pt x="712" y="645" on="0"/>
        <pt x="795" y="695" on="0"/>
        <pt x="795" y="750" on="1"/>
        <pt x="795" y="787" on="0"/>
        <pt x="758" y="831" on="0"/>
      </contour>
    </TTGlyph>
</ttFont>
